<?xml version="1.0" encoding="utf-8"?>
<!-- Generator: Adobe Illustrator 23.0.5, SVG Export Plug-In . SVG Version: 6.00 Build 0)  -->
<svg version="1.1" xmlns="http://www.w3.org/2000/svg" xmlns:xlink="http://www.w3.org/1999/xlink" x="0px" y="0px"
	 viewBox="0 0 750 500" style="enable-background:new 0 0 750 500;" xml:space="preserve">
<style type="text/css">
	.st0{fill:#23201E;}
	.st1{clip-path:url(#SVGID_2_);fill:#1E1E1E;}
	.st2{clip-path:url(#SVGID_2_);}
	.st3{fill:#FFFFFF;}
	.st4{clip-path:url(#SVGID_2_);fill:#FFFFFF;}
	.st5{clip-path:url(#SVGID_2_);fill:#A3A3A3;}
	.st6{clip-path:url(#SVGID_2_);fill:#3DC9B0;}
	.st7{clip-path:url(#SVGID_2_);fill:#2E2D2D;}
	.st8{fill:#1A2D2E;}
	.st9{fill:#606060;}
	.st10{clip-path:url(#SVGID_2_);fill:#615A6B;}
	.st11{fill:#615A6B;}
	.st12{fill:#A3A3A3;}
</style>
<g id="BACKGROUND">
</g>
<g id="OBJECTS">
	<g>
		<path class="st0" d="M-1164.1,96.7c15.4-9.9,33.6-15.7,46.9-28.7c0.2-0.2,0.4-0.5,0.7-0.7c-3.8,16.8-5.9,33.9-6.9,51.1
			c0,0.7,0.8,1.2,1.3,0.6c12.4-14.5,24.9-29.8,30.9-48.2c4.4-13.4,6.7-32.2-3.4-43.6c0.1-0.2,0.1-0.4,0.2-0.6
			c0.2-0.2,0.4-0.4,0.6-0.6c0.5-0.4,0.4-1.2,0-1.5c0.1-0.3,0.2-0.5,0.2-0.8c0.1-0.3-0.5-0.5-0.6-0.2c-0.1,0.3-0.2,0.5-0.3,0.8
			c-0.1,0-0.1,0-0.2,0c-32.4,12.1-66.3,34.1-70.8,71.4C-1165.7,96.7-1164.8,97.2-1164.1,96.7z M-1095.1,76.4
			c-6.2,15-16.4,27.7-26.8,40c0-0.5,0.1-1.1,0.1-1.6c0,0.3,0.4,0.4,0.6,0.1c14.4-25.3,23.4-55.3,26.3-84.2c0-0.5-0.2-0.8-0.6-0.9
			c0.1-0.4,0.3-0.9,0.4-1.3C-1085.9,42.6-1089,61.6-1095.1,76.4z M-1115.1,65.8c8.1-8.8,13.7-19.8,17.9-31.1
			c-4.5,28-12.8,54-24.6,79.9c0,0,0,0.1,0,0.1C-1120.6,98.2-1118.2,82-1115.1,65.8z M-1120.6,68.8c-11.6,10.3-26.4,15.9-39.7,23.5
			c20.8-22,42.1-43.6,64.3-64.2C-1102.2,42.9-1108.3,58-1120.6,68.8z M-1098.6,28c-22,21-43.6,42.5-64.3,64.9
			c-0.3,0.3-0.2,0.7,0,0.9c-0.2,0.1-0.4,0.3-0.7,0.4C-1158.3,60.3-1128.2,40.3-1098.6,28z"/>
		<g>
			<g>
				<path class="st0" d="M-1598.4,134.6c5.4-4.2,6.6-13.6,7-20.6c4.7,10.6,13.2,33.2,26.9,28.1c8.9-3.3,11.2-19.5,5.9-27.2
					c13.3,9.1,48.4,26.9,54.5,2.1c2.3-9.2-6.9-17.5-13.4-22.3c-8.9-6.6-19.6-10.3-30.6-9.7c9.2-5,28.1-17.7,15-26.9
					c-8.1-5.7-20.1-3.5-29.8,1.2c2.7-3.2,4.7-6.8,5.2-10.8c0.9-6-5.2-8.3-10.3-9.2c-17.5-3-36.4,13.3-44.8,27.1c0,0.1,0,0.1-0.1,0.2
					c-0.4,0.3-0.7,0.7-0.7,1.3c-0.5,13.2-1,26.3-1.4,39.5c-0.2,7.6-2.2,18.1,2.9,24.6C-1608.7,136.2-1602.9,138.1-1598.4,134.6z
					 M-1611.9,120.9c-0.1-3,0.1-6,0.2-8.9c0.5-14.7,1-29.4,1.4-44c0-0.4-0.1-0.7-0.3-0.9c8.2-8.7,17.2-17.6,28.5-22
					c5.1-2,17.5-4.6,20.3,2c2.8,6.6-8,15.4-12.5,18.4c-0.8,0.5-0.6,1.3-0.2,1.8c-0.3,0.5,0.3,1.1,0.8,0.8c8.6-5.8,18.3-9.7,28.9-9.5
					c3.3,0.1,11.2,0.4,12.1,4.5c1,4.3-1.6,7.7-4.5,10.3c-4.5,4-9.5,7.2-14.4,10.6c-1.3,0.9-0.4,2.7,1,2.4c0.1,0.1,0.2,0.2,0.4,0.2
					c8.9,0.9,17.5,3,25.3,7.4c7,4,19.6,13.1,17.3,22.4c-5.6,22.7-40.8,2-51.2-5.2c-1.3-0.9-2.4,0.4-2.2,1.6c-0.4,0-0.7,0.4-0.5,0.8
					c2.4,3.7,2.8,9.7,2.6,14.1c-0.4,8.4-8.6,16.4-16.3,8.9c-6.7-6.5-10.3-18.1-14.8-26.2c-0.8-1.4-2.4-0.7-2.8,0.4
					c-0.2,0.1-0.4,0.3-0.4,0.5c-0.6,5.1-1.3,14.9-5.2,18.6C-1608,139.3-1611.6,126.7-1611.9,120.9z"/>
				<path class="st0" d="M-1571.5,124.2c0.1,0.5,0.8,0.3,0.8-0.2c-2.1-11.8-5.1-23.9-9.8-35.1c5.6,3.4,11.4,6.5,17.4,9.4
					c3.7,3.3,6.7,7.1,9.1,11.5c0.2,0.3,0.7,0.1,0.5-0.2c-1.4-3.5-3.2-6.6-5.6-9.4c5.8,2.7,11.7,5.1,17.8,7.2
					c0.1,0.1,0.2,0.2,0.4,0.2c0.1,0,0.2,0,0.3,0c7,2.4,14.1,4.4,21.2,5.9c0.4,0.1,0.5-0.5,0.1-0.6c-5.7-1.8-11.3-3.7-16.8-5.7
					c5.1-1.1,10.3-4.3,14-7.1c0.4-0.3,0-0.9-0.4-0.6c-3,1.9-6.1,3.4-9.4,4.6c-2.4,0.8-4.9,1.2-7.3,1.9c-7.8-3-15.4-6.3-22.8-9.9
					c5.2,0.2,10.8-1.2,15.6-3c0.6-0.2,0.4-1.2-0.3-1c-5.7,1.7-11.3,2.2-17.1,3.1c-5.6-2.8-11-5.7-16.4-9c10.2-2.6,19.6-8,27.9-14.4
					c0.4-0.3,0-0.9-0.4-0.6c-9.1,6.6-19,10.5-29.7,13.6c0,0-0.1,0-0.1,0c-3.8-2.3-7.6-4.8-11.3-7.4c6.3-4,11.6-9.8,15.8-15.9
					c0.4-0.5-0.5-1.2-0.9-0.7c-5,6.1-10.5,10.7-16.7,15.4c-0.3-0.2-0.7-0.4-1-0.7c-1.1-0.8-2.1,1.1-1,1.9c0.1,0,0.1,0.1,0.2,0.1
					c0.1,8.5-1,16.7-3.2,24.9c-0.3,1.2,1.5,1.6,1.8,0.4c2.2-7.8,3.1-16,2.6-24.1c0.1,0,0.3,0,0.4-0.1c4,2.9,8.2,5.7,12.4,8.3
					C-1579.5,99.6-1575.1,111.7-1571.5,124.2z"/>
			</g>
			<path class="st0" d="M-1531,120c-1.7-4.2-4.1-8.1-7.4-11.2c-0.6-0.6-1.5,0.3-0.9,1c3,3.3,5.5,6.6,7.5,10.6
				C-1531.6,120.8-1530.8,120.4-1531,120z"/>
		</g>
		<path class="st0" d="M-902.7,593.7c-8.1-7.4-16.6-14.3-24.7-21.7c11.6-13.2,19.2-28.1,21.2-45.7c2-17.3-0.6-34.7-3.2-51.8
			c-0.2-1.1-1.6-1.3-2.2-0.5c-19.2,27.7-26.3,62.1-19.1,94.9c-0.8-0.8-1.7-1.6-2.5-2.4c-9.7-9.5-18.9-19.6-27.5-30
			c-0.7-0.9-1.4-1.8-2.1-2.6c-0.3-0.8-0.6-1.5-0.8-2.3c9.4-10,16-22,18.8-35.6c3.5-17.3,2.5-36,3.1-53.5c0-1.2-1.4-1.6-2.1-0.7
			c-20.2,24.3-32.2,56.7-21.8,87.4c-0.1,0.3-0.1,0.6-0.2,0.9c-9.1-11.6-17.4-23.6-25.2-36.1c0.2-0.1,0.3-0.3,0.2-0.5
			c-0.1-0.2-0.1-0.5-0.2-0.7c19.4-21.1,17-51.8,14.1-78.3c-0.1-0.9-1.4-1.1-1.8-0.4c-7.6,12.7-14.9,25.5-17.3,40.3
			c-2,12.4-0.9,25.2,3.5,37c-0.3-0.4-0.5-0.9-0.8-1.3c0-0.1,0-0.1,0-0.2c-0.8-1.8-1.9-3.5-3.1-5c-3.3-5.5-6.5-11-9.6-16.7
			c0-0.1,0.1-0.1,0.1-0.2c3.8-33.5,6.5-66.3-7.3-97.9c-0.5-1-2.1-0.5-1.9,0.6c2.6,15.5-5,36.6-7.2,55.7
			c-4.2-12.2-14.4-20.3-24.6-27.8c-0.7-0.5-1.6,0.2-1.5,1c3.4,26.2,9.9,62.4,40.8,68.9c0.2,0.3,0.5,0.4,0.9,0.3
			c1.8,3.9,3.7,7.7,5.7,11.5c-6.8-5.6-16.1-9.3-23.5-12.2c-15.5-6.2-32.8-7.9-46.3-18.2c-0.9-0.6-2,0.4-1.5,1.3
			c13.8,29.7,46.3,49.3,79.2,43.3c6.1,10.4,12.8,20.6,20,30.3c-29.3-17.7-62.6-27-96.9-27c-1.2,0-1.9,1.6-0.8,2.3
			c30.1,20,65.7,42.4,103.3,32.1c1.3,1.7,2.6,3.4,4,5.1c7.9,9.9,16.5,20,25.6,29.5c-32.1-15.2-69.3-15.6-102-0.8
			c-1,0.5-1.1,1.9-0.2,2.5c32.2,22.5,75.4,24.7,109.7,5.8c8.2,7.9,16.8,15.3,25.9,21.6C-903.4,596.9-901.5,594.9-902.7,593.7z
			 M-1004.7,418.4c0.3,13.4-1.3,26.7-2.4,40c-0.8-3.3-1.9-6.6-2.8-10c-2.2-8.1-2.2-16.4-1.4-24.8c1.2-13,3.7-26.1,1.1-39
			C-1006.9,395.6-1004.9,406.9-1004.7,418.4z M-1012.3,380.5c-0.4-1-0.5-2-0.2-3c0.4,1,0.7,2,1,3
			C-1011.8,380.4-1012.1,380.4-1012.3,380.5z M-1012.9,381.9c0.1,0,0.2,0,0.3,0c3.9,14.5,0.5,29.1-0.6,43.8
			c-0.5,6.2-0.6,12.5,0.6,18.7c1.3,6.8,4.3,13.1,4.8,20C-1033.3,444.8-1014.8,410.1-1012.9,381.9z M-1023.5,428.9
			c0.1,0.5,0.5,0.7,0.9,0.7c-1,12.7,0.8,24.3,10.3,32.7c-11.5-8-18.4-19.3-22.2-33.1c-2.5-9.2-4.7-18.3-9.9-26.3
			C-1035.3,409.8-1026.7,417.5-1023.5,428.9z M-1046.1,402.2c7,11,8.1,24.3,12.6,36.3c4.5,12.1,13.1,21.7,24.3,28
			c0.6,0.3,1.2-0.1,1.4-0.5c0,0.5,0,1.1,0,1.6C-1035.7,457.7-1042.4,428.6-1046.1,402.2z M-1035.4,466.5
			c11.7,3.6,29.8,9.4,37.8,20.3c0.8,1.5,1.6,2.9,2.5,4.3c-26.1-7.3-54.3-12.9-71.3-35.8C-1056.9,460.8-1046.1,463.2-1035.4,466.5z
			 M-1068.7,454c0.4,0.2,0.8,0.5,1.1,0.7c-0.1,0.1-0.1,0.2-0.1,0.3c14.5,25.4,47.5,31.4,73.4,38.5
			C-1025.3,495.5-1053.8,481.8-1068.7,454z M-994.4,455.8c2-13.4,8.1-25.4,15.1-36.9c-6.3,23.1-10.4,46.5-12.7,70.3
			C-994.9,478.3-996.1,467.2-994.4,455.8z M-990.5,490.1c-1.7-1.7,0.9-11.5,1.2-14.1c0.8-6.5,1.8-12.9,2.9-19.3
			c2.1-12,4.8-23.8,8.1-35.6c1,10.5,1.9,21.1,1.1,31.6c-0.5,6.7-1.7,13.4-3.9,19.8C-981.5,473.6-990,490.7-990.5,490.1z
			 M-1064.1,501.7c-0.6-0.4-1.2-0.8-1.7-1.1c31.6,0.6,62.3,9.3,89.5,25.4c-29.1-6.3-59.9-11-86.4-24.4
			C-1063.3,501.3-1063.8,501.4-1064.1,501.7z M-1054.7,507.7c11.2,4.6,23,7.8,34.9,10.6c16.6,3.9,33.2,7.7,49.8,11.5
			c0.1,0,0.3,0,0.4,0c0.4,0.5,0.8,1,1.2,1.6C-999.9,537.4-1028.5,523.9-1054.7,507.7z M-944.1,445.8c0,0.2,0,0.4,0,0.6
			c-7.4,11.5-8.9,26.4-11.8,39.6c-3,13.5-6.1,27.1-9.1,40.6C-972.6,498-962.3,468.8-944.1,445.8z M-963.6,528.9
			c2.9-13.1,5.8-26.3,8.7-39.4c2.8-12.6,4.3-27.7,10.7-39.3c-0.3,12.7-0.5,25.5-1.8,38.1C-947.6,503.5-953.8,517.5-963.6,528.9z
			 M-908.4,523.7c-1.4,15.9-7.5,29.7-16.9,42c9.4-25.5,14.6-52.3,15.2-79.4C-908.4,498.7-907.2,511.2-908.4,523.7z M-912.1,479.3
			c0.2,31.1-5.5,61.7-17.2,90.5C-935.1,538.7-929.1,506.1-912.1,479.3z M-935.9,569.1c0.1,0.1,0.1,0.1,0.2,0.2
			c-4.1-0.3-8.5,0.5-12.3,0.5c-9.5,0.2-18.9,0.2-28.4-0.1c-18.8-0.4-37.6-1.7-56.4-3.6C-1001.7,554.3-966.3,555.4-935.9,569.1z
			 M-1036.4,567.6c0.7-0.3,1.5-0.6,2.2-0.9c-0.4,0.7-0.1,1.8,1,1.9c17,1.7,34,2.9,51,3.4c8,0.2,16.1,0.3,24.1,0.2
			c4.3,0,8.5-0.1,12.8-0.2c3.6-0.1,8.4-0.9,12.3,0c0.2,0.2,0.5,0.5,0.7,0.7C-964.9,590-1005.8,588-1036.4,567.6z"/>
		<g>
			<path class="st0" d="M-855.5,41c-23.5,2.6-45.1,18.1-57.7,37.7c-0.4,0.6,0.1,1.3,0.8,1.3c0.7,0,1.4,0,2.1,0c0.1,0,0.2,0,0.3,0
				c23.1-0.1,44.5-14.7,53.1-36.2c0.4-1-1-1.5-1.6-0.9c-9.2,7.6-18.9,14.3-29.3,20.1c-8.1,4.4-16.4,8.4-22.7,15.3
				c-0.1,0-0.2,0-0.2,0c13-19.6,32.7-31.1,55.3-36.4C-855,41.7-855.1,40.9-855.5,41z M-883.8,62.6c8.2-4.7,16.1-10.1,23.5-15.9
				c-8.8,18.3-27.6,30.6-47.8,31.4C-901.2,71.3-892.2,67.5-883.8,62.6z"/>
			<path class="st0" d="M-904.3,51.1c-0.1,0-0.3-0.1-0.4-0.1c-0.2-0.3-0.5-0.5-1-0.4c-0.1,0-0.2,0.1-0.3,0.1
				c-18.8-4.5-39.2,1.4-54.4,12.9c-0.6,0.5-0.7,1.6,0.2,1.8c19.5,4.5,41.4,2.6,55.3-13.3c0.1-0.1,0.1-0.2,0.2-0.3c0.1,0,0.2,0,0.3,0
				C-904,51.9-903.9,51.2-904.3,51.1z M-908.6,51.5c-15.1,4.6-30.5,8.1-46,10.6C-940.8,53.4-924.9,50.4-908.6,51.5z M-956.4,64.1
				c16.3-2.5,32.3-6.1,48-10.9C-921.1,65.6-939.5,67.5-956.4,64.1z"/>
			<path class="st0" d="M-870.9,77c0-0.8-1-1-1.4-0.4c-0.1-0.1-0.2-0.2-0.4-0.1c-19.2,10.7-20,35.8-20,55.1c0,0.7,1,1.2,1.5,0.6
				C-877.7,117.3-870,97.2-870.9,77z M-891,128c0.4,0.2,1,0.1,1.3-0.5c5.7-15.3,11.3-30.7,17.2-46c-0.8,17.6-6.9,34.2-18.4,47.7
				C-891,128.9-891,128.4-891,128z M-872.6,77.2c-5.9,16.3-12.2,32.6-18.4,48.8C-890.8,107.7-888.4,88.8-872.6,77.2z"/>
			<path class="st0" d="M-900.4,90.3c-13,11.9-25.3,25.8-34,41.2c-0.4,0.6,0.1,1.2,0.6,1.3c-0.4,0.2-0.7,0.4-1.1,0.6
				c2.8-20.6,17-36.5,35.8-44.6c0.3-0.1,0.1-0.5-0.2-0.4c-20.8,5.5-35.5,25.9-37.7,46.7c-0.1,0.8,0.8,1.1,1.4,0.8
				c17.9-9.2,34.5-23.7,36.7-44.9C-898.8,90.1-899.8,89.8-900.4,90.3z M-932.7,132.1c9.5-14,19.5-27.1,31.7-38.8
				C-904.1,111-917.5,123.6-932.7,132.1z"/>
			<path class="st0" d="M-925.5,81c-17,8.9-34.5,16.8-52.5,23.5c-0.4,0-0.8,0-1.2,0c11.5-17.3,32.4-26.6,53-24.2
				c0.3,0,0.4-0.5,0.1-0.6c-21.7-4.3-44.4,6.3-55.7,25.2c-0.4,0.6,0.1,1.5,0.8,1.4c20.8-0.5,47.1-2.2,56.7-24.3
				C-923.9,81.4-924.6,80.6-925.5,81z M-972.7,104.4c15.6-6.1,30.8-13,45.7-20.6C-935.7,100.1-955.1,103.6-972.7,104.4z"/>
			<path class="st0" d="M-944.9,111.1c-0.1-0.6-1.1-0.9-1.5-0.4c-9,11.2-18.3,22.3-27.4,33.4c-0.2,0.1-0.4,0.2-0.6,0.2
				c3.3-14.3,12.8-25.3,25.7-32.1c0.3-0.1,0.1-0.6-0.2-0.5c-14.3,5.5-24.5,19-27.5,33.8c-0.1,0.6,0.4,1.3,1.1,1.1
				C-960.7,140.7-940.6,130.5-944.9,111.1z M-970.5,142.7c8.1-9.7,16.2-19.5,24.2-29.2C-944.3,128.4-958.1,137.1-970.5,142.7z"/>
		</g>
		<g>
			<path class="st0" d="M-1501.1,435.4c-22.4,16.9-51.8,22.2-72,42.3c-11.9,11.8-19.8,26.4-27.4,41.2c-0.2-0.1-0.4,0-0.4,0.3
				c0,0.2,0,0.4,0,0.5c-4.7,9.2-9.3,18.5-14.7,27.3c-0.2,0.4,0.3,0.7,0.6,0.3c5.2-7.9,9.6-16.3,14.1-24.8
				c-0.1,5.3-0.2,10.5-0.5,15.8c-4.4,3-8.8,6-13.3,8.9c-0.3,0.2-0.3,0.5-0.1,0.7c-0.3,0.5-0.2,1.3,0.5,1.5
				c28.5,9.2,60-2.6,80.3-23.4c23.2-23.9,31.9-57.6,34.3-89.9C-1499.7,435.5-1500.6,435-1501.1,435.4z M-1514.6,446
				c0.6,3.9,0.4,7.8-0.4,11.7c-2.7,3.5-5.5,7-8.4,10.4c-0.5-5.4-1.4-11-3.5-16C-1522.7,450.2-1518.6,448.2-1514.6,446z
				 M-1527.5,452.4c0.8,5.9,2.1,11.6,2.5,17.5c0,0.1,0,0.1,0.1,0.2c-2.7,3.2-5.5,6.3-8.3,9.4c0-0.4,0-1,0-1.7c0-7.2-1.3-14.3-3.9-21
				C-1534,455.4-1530.7,453.9-1527.5,452.4z M-1537.9,457.2c2.2,8,3.3,16,2.8,24.3c-4.9,5.4-10,10.6-15.2,15.6
				c-0.9-1.6-0.3-5.2-0.3-6.8l-0.1-9c-0.1-5.8-0.1-11.7-0.5-17.5C-1546.9,461.5-1542.4,459.4-1537.9,457.2z M-1567.2,474.4
				c4.8-3.9,9.9-7.2,15.2-10.2c-0.8,11.5-0.3,23.2-0.2,34.8c-0.2,0.2-0.3,0.3-0.5,0.5c-4.7,4.5-9.6,8.8-14.5,12.9
				c-0.9-2.1,0.3-6.5,0.4-8.3c0.2-3.3,0.3-6.7,0.4-10C-1566.3,487.7-1565.8,480.7-1567.2,474.4z M-1572,478.8
				c1.4-1.3,2.8-2.6,4.2-3.8c-0.9,7-0.3,14.4-0.6,21.4c-0.2,4.1-0.5,8.2-0.8,12.2c-0.1,1.8-0.7,3.9,0.2,5.4
				c-5.6,4.7-11.4,9.1-17.2,13.5c-0.6-4.3,1.9-13.3,2.1-16c0.5-5.9,0.7-12-0.1-17.9C-1580.7,488.3-1576.7,483.3-1572,478.8z
				 M-1600,531.8c0-3.6-0.1-7.1-0.2-10.7c4.7-9.1,9.5-18.1,15.2-26.5c-0.3,7.8-0.4,15.4-1.6,23.1c-0.4,2.3-2.9,8.3-2.1,11.6
				c-3.8,2.8-7.7,5.5-11.5,8.2C-1600.6,535.8-1600,533.1-1600,531.8z M-1613.5,547.7c4.1-2.3,8.1-4.7,12-7.2
				c0.1,0.1,0.2,0.3,0.4,0.3c10,2,20.1,4.1,30.1,6C-1584.7,551.2-1599.4,551.9-1613.5,547.7z M-1534.3,523.4
				c-9.4,10-21.2,17.9-34.1,22.5c0,0-0.1,0-0.1-0.1c-8.6-1.8-17.2-3.4-25.8-5.1c-1.8-0.3-3.9-0.2-5.1-1.6c4-2.6,8-5.3,12-8.1
				c0.6,0.3,1.3,0.2,2.1,0.3c3.5,0.5,7.6-0.1,11.2,0c8.9,0.3,17.7,1.6,26.5,3.2c1,0.2,1.4-1.3,0.4-1.5c-5.9-1.3-11.9-2.3-17.9-2.9
				c-3.3-0.3-6.7-0.6-10.1-0.7c-1.9-0.1-8.6,1-10.1,0c6.3-4.5,12.4-9.3,18.3-14.3c0.2,0,0.4,0,0.6,0.1c3.7,0.6,8.8-0.7,12.6-0.7
				c8.3,0.1,16.4,1.3,24.4,3.3C-1531,519.8-1532.6,521.6-1534.3,523.4z M-1528.5,516.5c-0.1,0-0.1-0.1-0.2-0.1
				c-5.8-1.6-11.8-2.7-17.9-3.3c-3.2-0.3-6.3-0.4-9.5-0.4c-1.3,0-6.5,1-9.2,0.9c5.1-4.4,10-8.9,14.8-13.5c10.9-1.5,21.8-1.9,32.8-1
				c0.1,0,0.1,0,0.2,0C-1520.5,505.2-1524.2,511.1-1528.5,516.5z M-1516.9,498c-0.1-0.3-0.4-0.5-0.7-0.6c-6-0.5-12-0.7-18-0.4
				c-3,0.1-6,0.4-9,0.7c-1.1,0.1-2.6,0.6-3.8,0.6c4.9-4.8,9.6-9.7,14.2-14.7c7.8,0,15.5-0.1,23.3-0.1c0.1,0,0.2,0,0.3-0.1
				C-1512.5,488.4-1514.5,493.3-1516.9,498z M-1510.3,482.2c-0.1-0.2-0.3-0.4-0.7-0.4c-4.2,0-8.5,0-12.7,0c-2,0-4.4,0.4-6.4,0
				c-1.1-0.2-1.8-0.3-2.2-0.5c3.1-3.5,6.2-7,9.2-10.6c5.5-0.5,11.1-0.9,16.6-1.6C-1507.6,473.6-1508.8,477.9-1510.3,482.2z
				 M-1506.1,467.5c-5.1,0.2-10.2,0.7-15.3,1.2c2.7-3.3,5.3-6.6,7.9-9.9c3.2-1.9,6.5-3.4,10-4.6
				C-1504.2,458.7-1505,463.1-1506.1,467.5z M-1503.3,452.7c-0.2-0.1-0.4-0.1-0.6-0.1c-2.5,0.8-4.8,1.8-7.1,2.9c3-4,6-8.1,8.8-12.2
				C-1502.4,446.5-1502.8,449.6-1503.3,452.7z M-1501.8,439.8c-0.1,0.1-0.2,0.1-0.2,0.2c-3.5,5.1-7.1,10.2-10.9,15.1
				c0.3-3.2,0-6.4-0.8-9.6c4.2-2.3,8.2-4.8,12.1-7.6C-1501.7,438.6-1501.8,439.2-1501.8,439.8z"/>
			<path class="st0" d="M-1541.9,316.7c-13.4,24.6-38.1,41.6-48.3,68.2c-6,15.6-7.2,32.2-8,48.8c-0.2,0-0.4,0.2-0.3,0.4
				c0.1,0.2,0.1,0.3,0.2,0.5c-0.5,10.4-0.9,20.7-2.2,30.9c-0.1,0.4,0.6,0.5,0.7,0.1c1.5-9.3,2.1-18.8,2.6-28.4
				c2.1,4.8,4.1,9.7,6,14.6c-2.7,4.6-5.6,9.1-8.4,13.6c-0.2,0.3-0.1,0.6,0.2,0.7c-0.1,0.6,0.3,1.3,1.1,1.2
				c29.8-3.4,53.6-27,63.6-54.4c11.4-31.3,5.4-65.6-5.7-96C-1540.5,316.3-1541.5,316.1-1541.9,316.7z M-1549.7,332
				c2.1,3.3,3.6,7,4.5,10.8c-1,4.3-2.1,8.6-3.3,12.9c-2.7-4.8-5.8-9.5-9.8-13.2C-1555.4,339.1-1552.5,335.6-1549.7,332z
				 M-1558.9,343.1c3.2,5,6.7,9.7,9.4,14.9c0,0.1,0.1,0.1,0.1,0.2c-1.1,4-2.4,8-3.7,12c-0.2-0.4-0.4-0.9-0.7-1.5
				c-2.9-6.5-7.1-12.5-12.2-17.5C-1563.5,348.5-1561.2,345.8-1558.9,343.1z M-1566.4,351.8c5.3,6.4,9.6,13.3,12.6,21
				c-2.3,6.9-4.7,13.8-7.4,20.5c-1.5-1.1-2.4-4.6-3.1-6.1l-3.8-8.2c-2.5-5.3-4.9-10.6-7.7-15.7
				C-1572.8,359.4-1569.6,355.6-1566.4,351.8z M-1586,379.5c2.7-5.5,6.1-10.6,9.7-15.5c4,10.8,9.3,21.3,14.1,31.8
				c-0.1,0.2-0.2,0.5-0.3,0.7c-2.5,6-5.1,11.9-7.9,17.7c-1.7-1.6-2.4-6.1-3-7.8c-1.2-3.1-2.5-6.2-3.8-9.3
				C-1579.7,391.3-1582.2,384.7-1586,379.5z M-1588.6,385.4c0.7-1.8,1.5-3.5,2.3-5.2c2,6.8,5.7,13.2,8.2,19.8
				c1.5,3.8,2.9,7.6,4.3,11.5c0.6,1.7,0.9,3.8,2.4,4.9c-3.2,6.6-6.6,13-10.2,19.4c-2.3-3.7-3.8-12.9-4.6-15.4
				c-2-5.6-4.3-11.2-7.5-16.3C-1592.6,397.7-1591,391.5-1588.6,385.4z M-1592.3,445.2c-1.4-3.3-3-6.5-4.6-9.7
				c0.6-10.2,1.2-20.4,2.9-30.4c2.9,7.2,6,14.2,8,21.7c0.6,2.3,0.8,8.8,2.8,11.4c-2.3,4.1-4.7,8.2-7.2,12.2
				C-1591.2,449.2-1591.7,446.5-1592.3,445.2z M-1598.1,465.3c2.8-3.7,5.4-7.6,8-11.5c0.1,0.1,0.3,0.2,0.5,0.1
				c10-2.3,20-4.6,29.9-6.9C-1570.4,456.6-1583.5,463.3-1598.1,465.3z M-1535.9,410.6c-4.4,13-12,25.1-21.8,34.6c0,0-0.1,0-0.1,0
				c-8.5,1.9-17.1,4-25.6,6c-1.8,0.4-3.6,1.4-5.3,0.7c2.6-4,5.2-8.1,7.6-12.3c0.7,0,1.3-0.3,2-0.6c3.4-1,6.9-3.2,10.2-4.6
				c8.3-3.4,16.8-5.8,25.4-8c1-0.2,0.7-1.7-0.2-1.5c-5.9,1.2-11.8,2.8-17.5,4.8c-3.2,1.1-6.3,2.2-9.5,3.5c-1.8,0.7-7.5,4.4-9.2,4.1
				c3.8-6.7,7.4-13.6,10.8-20.6c0.2-0.1,0.3-0.1,0.5-0.2c3.7-0.9,7.7-4.3,11.2-5.8c7.6-3.3,15.5-5.5,23.6-7
				C-1534.4,406-1535.1,408.3-1535.9,410.6z M-1533.4,401.9c-0.1,0-0.2,0-0.3,0c-6,0.9-11.9,2.4-17.6,4.4c-3,1-5.9,2.2-8.8,3.5
				c-1.2,0.5-5.5,3.6-8,4.6c2.8-6.1,5.5-12.2,8-18.4c9.3-5.9,19.1-10.7,29.5-14.4c0.1,0,0.1-0.1,0.2-0.1
				C-1530.8,388.4-1531.8,395.2-1533.4,401.9z M-1530.4,380.3c-0.2-0.2-0.5-0.3-0.9-0.2c-5.7,2-11.2,4.3-16.6,7
				c-2.7,1.4-5.3,2.8-7.9,4.3c-1,0.6-2.1,1.6-3.2,2.1c2.5-6.3,4.8-12.8,6.9-19.2c7.1-3.2,14.1-6.4,21.2-9.7c0.1,0,0.2-0.1,0.2-0.2
				C-1530.4,369.7-1530.2,375-1530.4,380.3z M-1531,363.2c-0.2-0.2-0.5-0.2-0.8-0.1c-3.9,1.8-7.7,3.5-11.6,5.3
				c-1.8,0.8-3.8,2.1-5.8,2.7c-1,0.3-1.7,0.5-2.2,0.5c1.4-4.5,2.8-9,4-13.5c4.8-2.7,9.8-5.4,14.5-8.3
				C-1532,354.2-1531.4,358.7-1531,363.2z M-1533.1,348c-4.6,2.3-9,4.9-13.5,7.4c1.1-4.1,2.2-8.2,3.1-12.3c2.1-3.1,4.5-5.8,7.2-8.3
				C-1535,339.3-1534,343.6-1533.1,348z M-1536.7,333.4c-0.2,0-0.4,0-0.6,0.2c-1.9,1.7-3.6,3.6-5.2,5.6c1.1-4.9,2.1-9.8,3-14.7
				C-1538.5,327.4-1537.6,330.4-1536.7,333.4z M-1540.7,321.1c0,0.1-0.1,0.2-0.1,0.3c-1.1,6.1-2.3,12.2-3.7,18.3
				c-1.1-3-2.6-5.8-4.7-8.4c2.9-3.8,5.5-7.7,7.9-11.9C-1541.1,319.9-1540.9,320.5-1540.7,321.1z"/>
			<path class="st0" d="M-1454.3,272.1c-13.4,24.6-38.1,41.6-48.3,68.2c-6,15.6-7.2,32.2-8,48.8c-0.2,0-0.4,0.2-0.3,0.4
				c0.1,0.2,0.1,0.3,0.2,0.5c-0.5,10.4-0.9,20.7-2.2,30.9c-0.1,0.4,0.6,0.5,0.7,0.1c1.5-9.3,2.1-18.8,2.6-28.4
				c2.1,4.8,4.1,9.7,6,14.6c-2.7,4.6-5.6,9.1-8.4,13.6c-0.2,0.3-0.1,0.6,0.2,0.7c-0.1,0.6,0.3,1.3,1.1,1.2
				c29.8-3.4,53.6-27,63.6-54.4c11.4-31.3,5.4-65.6-5.7-96C-1453,271.6-1454,271.5-1454.3,272.1z M-1462.2,287.4
				c2.1,3.3,3.6,7,4.5,10.8c-1,4.3-2.1,8.6-3.3,12.9c-2.7-4.8-5.8-9.5-9.8-13.2C-1467.9,294.5-1464.9,291-1462.2,287.4z
				 M-1471.3,298.5c3.2,5,6.7,9.7,9.4,14.9c0,0.1,0.1,0.1,0.1,0.2c-1.1,4-2.4,8-3.7,12c-0.2-0.4-0.4-0.9-0.7-1.5
				c-2.9-6.5-7.1-12.5-12.2-17.5C-1476,303.9-1473.6,301.2-1471.3,298.5z M-1478.8,307.1c5.3,6.4,9.6,13.3,12.6,21
				c-2.3,6.9-4.7,13.8-7.4,20.5c-1.5-1.1-2.4-4.6-3.1-6.1l-3.8-8.2c-2.5-5.3-4.9-10.6-7.7-15.7
				C-1485.3,314.8-1482.1,310.9-1478.8,307.1z M-1498.5,334.9c2.7-5.5,6.1-10.6,9.7-15.5c4,10.8,9.3,21.3,14.1,31.8
				c-0.1,0.2-0.2,0.5-0.3,0.7c-2.5,6-5.1,11.9-7.9,17.7c-1.7-1.6-2.4-6.1-3-7.8c-1.2-3.1-2.5-6.2-3.8-9.3
				C-1492.2,346.6-1494.6,340.1-1498.5,334.9z M-1501.1,340.8c0.7-1.8,1.5-3.5,2.3-5.2c2,6.8,5.7,13.2,8.2,19.8
				c1.5,3.8,2.9,7.6,4.3,11.5c0.6,1.7,0.9,3.8,2.4,4.9c-3.2,6.6-6.6,13-10.2,19.4c-2.3-3.7-3.8-12.9-4.6-15.4
				c-2-5.6-4.3-11.2-7.5-16.3C-1505.1,353.1-1503.4,346.9-1501.1,340.8z M-1504.7,400.6c-1.4-3.3-3-6.5-4.6-9.7
				c0.6-10.2,1.2-20.4,2.9-30.4c2.9,7.2,6,14.2,8,21.7c0.6,2.3,0.8,8.8,2.8,11.4c-2.3,4.1-4.7,8.2-7.2,12.2
				C-1503.6,404.6-1504.2,401.9-1504.7,400.6z M-1510.6,420.7c2.8-3.7,5.4-7.6,8-11.5c0.1,0.1,0.3,0.2,0.5,0.1
				c10-2.3,20-4.6,29.9-6.9C-1482.8,412-1495.9,418.7-1510.6,420.7z M-1448.3,366c-4.4,13-12,25.1-21.8,34.6c0,0-0.1,0-0.1,0
				c-8.5,1.9-17.1,4-25.6,6c-1.8,0.4-3.6,1.4-5.3,0.7c2.6-4,5.2-8.1,7.6-12.3c0.7,0,1.3-0.3,2-0.6c3.4-1,6.9-3.2,10.2-4.6
				c8.3-3.4,16.8-5.8,25.4-8c1-0.2,0.7-1.7-0.2-1.5c-5.9,1.2-11.8,2.8-17.5,4.8c-3.2,1.1-6.3,2.2-9.5,3.5c-1.8,0.7-7.5,4.4-9.2,4.1
				c3.8-6.7,7.4-13.6,10.8-20.6c0.2-0.1,0.3-0.1,0.5-0.2c3.7-0.9,7.7-4.3,11.2-5.8c7.6-3.3,15.5-5.5,23.6-7
				C-1446.8,361.3-1447.5,363.7-1448.3,366z M-1445.8,357.3c-0.1,0-0.2,0-0.3,0c-6,0.9-11.9,2.4-17.6,4.4c-3,1-5.9,2.2-8.8,3.5
				c-1.2,0.5-5.5,3.6-8,4.6c2.8-6.1,5.5-12.2,8-18.4c9.3-5.9,19.1-10.7,29.5-14.4c0.1,0,0.1-0.1,0.2-0.1
				C-1443.3,343.8-1444.2,350.6-1445.8,357.3z M-1442.9,335.6c-0.2-0.2-0.5-0.3-0.9-0.2c-5.7,2-11.2,4.3-16.6,7
				c-2.7,1.4-5.3,2.8-7.9,4.3c-1,0.6-2.1,1.6-3.2,2.1c2.5-6.3,4.8-12.8,6.9-19.2c7.1-3.2,14.1-6.4,21.2-9.7c0.1,0,0.2-0.1,0.2-0.2
				C-1442.8,325.1-1442.7,330.4-1442.9,335.6z M-1443.4,318.5c-0.2-0.2-0.5-0.2-0.8-0.1c-3.9,1.8-7.7,3.5-11.6,5.3
				c-1.8,0.8-3.8,2.1-5.8,2.7c-1,0.3-1.7,0.5-2.2,0.5c1.4-4.5,2.8-9,4-13.5c4.8-2.7,9.8-5.4,14.5-8.3
				C-1444.4,309.6-1443.8,314-1443.4,318.5z M-1445.6,303.4c-4.6,2.3-9,4.9-13.5,7.4c1.1-4.1,2.2-8.2,3.1-12.3
				c2.1-3.1,4.5-5.8,7.2-8.3C-1447.5,294.6-1446.4,299-1445.6,303.4z M-1449.1,288.8c-0.2,0-0.4,0-0.6,0.2c-1.9,1.7-3.6,3.6-5.2,5.6
				c1.1-4.9,2.1-9.8,3-14.7C-1450.9,282.8-1450,285.8-1449.1,288.8z M-1453.1,276.5c0,0.1-0.1,0.2-0.1,0.3
				c-1.1,6.1-2.3,12.2-3.7,18.3c-1.1-3-2.6-5.8-4.7-8.4c2.9-3.8,5.5-7.7,7.9-11.9C-1453.5,275.3-1453.3,275.9-1453.1,276.5z"/>
			<path class="st0" d="M-1416.6,410c-18.1,21.4-45.7,33-61.1,57c-9,14.1-13.5,30.1-17.7,46.2c-0.2,0-0.4,0.1-0.3,0.4
				c0,0.2,0.1,0.3,0.1,0.5c-2.6,10-5,20.1-8.4,29.8c-0.1,0.4,0.5,0.6,0.6,0.2c3.3-8.8,5.8-18,8.3-27.3c1.1,5.2,2.1,10.3,2.9,15.5
				c-3.6,3.9-7.3,7.8-11,11.6c-0.2,0.2-0.2,0.5,0,0.7c-0.2,0.6,0,1.3,0.8,1.4c29.8,2.7,58-15.6,73.3-40.4
				c17.5-28.4,18.6-63.1,13.8-95.2C-1415.3,409.8-1416.2,409.5-1416.6,410z M-1427.5,423.4c1.4,3.7,2.1,7.6,2.2,11.5
				c-1.9,4-3.8,8-5.9,12c-1.7-5.2-3.7-10.5-6.9-14.9C-1434.4,429.2-1430.9,426.3-1427.5,423.4z M-1438.7,432.4
				c2.1,5.5,4.6,10.8,6.2,16.5c0,0.1,0.1,0.1,0.1,0.2c-1.9,3.7-3.9,7.4-6,11c-0.1-0.4-0.2-1-0.4-1.6c-1.6-7-4.4-13.7-8.4-19.6
				C-1444.3,436.7-1441.5,434.6-1438.7,432.4z M-1447.7,439.4c3.9,7.3,6.7,14.9,8,23.1c-3.6,6.3-7.4,12.5-11.4,18.6
				c-1.2-1.4-1.4-5-1.8-6.6l-2.1-8.8c-1.4-5.7-2.6-11.4-4.3-17C-1455.6,445.5-1451.7,442.4-1447.7,439.4z M-1472.6,462.6
				c3.8-4.8,8.1-9.2,12.7-13.2c1.8,11.4,4.8,22.7,7.4,34c-0.1,0.2-0.3,0.4-0.4,0.6c-3.6,5.4-7.4,10.6-11.3,15.8
				c-1.3-1.9-1.1-6.4-1.4-8.2c-0.5-3.3-1.1-6.6-1.8-9.9C-1468.8,475.3-1469.9,468.4-1472.6,462.6z M-1476.4,467.8
				c1-1.6,2.2-3.2,3.3-4.7c0.6,7,2.9,14.1,4.1,21c0.7,4,1.3,8.1,1.9,12.1c0.2,1.7,0.1,3.9,1.3,5.3c-4.5,5.8-9.1,11.4-13.9,16.9
				c-1.5-4.1-1.1-13.4-1.4-16c-0.8-5.9-1.9-11.9-4-17.5C-1482.7,479.1-1479.9,473.3-1476.4,467.8z M-1492,525.6
				c-0.7-3.5-1.6-7-2.6-10.4c2.6-9.9,5.3-19.7,9-29.1c1.4,7.6,3,15.1,3.5,22.9c0.1,2.4-1,8.7,0.5,11.7c-3.1,3.5-6.3,7-9.5,10.5
				C-1491.8,529.7-1491.8,527-1492,525.6z M-1501.8,544.1c3.5-3.1,6.9-6.3,10.2-9.6c0.1,0.1,0.3,0.2,0.4,0.2
				c10.2-0.2,20.5-0.4,30.7-0.7C-1472.9,541.2-1487.1,545.1-1501.8,544.1z M-1429.8,503.1c-7,11.8-16.8,22.1-28.4,29.4
				c0,0-0.1,0-0.1,0c-8.8,0.2-17.5,0.4-26.3,0.7c-1.8,0.1-3.9,0.6-5.4-0.4c3.4-3.4,6.7-6.9,9.9-10.5c0.7,0.2,1.4-0.1,2.1-0.1
				c3.6-0.3,7.4-1.8,10.9-2.4c8.8-1.6,17.6-2.3,26.5-2.7c1,0,1.1-1.5,0.1-1.5c-6,0-12.1,0.4-18.1,1.1c-3.3,0.4-6.7,0.9-10,1.5
				c-1.9,0.4-8.2,2.8-9.8,2.2c5.1-5.8,10-11.8,14.7-18c0.2,0,0.3-0.1,0.6-0.1c3.8-0.2,8.4-2.6,12.2-3.4c8.1-1.7,16.3-2.3,24.5-2.1
				C-1427.4,498.9-1428.5,501-1429.8,503.1z M-1425.6,495.2c-0.1,0-0.2-0.1-0.3-0.1c-6.1-0.3-12.1-0.1-18.1,0.7
				c-3.1,0.4-6.3,1-9.3,1.7c-1.3,0.3-6.2,2.4-8.7,2.9c4-5.4,7.8-10.8,11.5-16.4c10.3-3.9,20.9-6.6,31.8-8.1c0.1,0,0.1,0,0.2-0.1
				C-1420.3,482.4-1422.6,488.9-1425.6,495.2z M-1418.3,474.5c-0.2-0.3-0.5-0.4-0.8-0.4c-6,0.8-11.9,2-17.7,3.5
				c-2.9,0.8-5.8,1.7-8.6,2.6c-1.1,0.4-2.4,1.2-3.6,1.4c3.7-5.7,7.3-11.5,10.6-17.4c7.6-1.7,15.1-3.4,22.7-5.2
				c0.1,0,0.2-0.1,0.2-0.1C-1416.1,464.2-1417.1,469.4-1418.3,474.5z M-1415.4,457.7c-0.2-0.2-0.4-0.3-0.8-0.2
				c-4.1,0.9-8.3,1.9-12.4,2.8c-2,0.5-4.2,1.3-6.2,1.4c-1.1,0.1-1.8,0.1-2.3,0c2.3-4.1,4.5-8.2,6.7-12.4c5.3-1.7,10.6-3.3,15.9-5.2
				C-1414.6,448.7-1414.9,453.2-1415.4,457.7z M-1414.4,442.4c-4.9,1.3-9.8,3-14.7,4.5c1.9-3.8,3.8-7.6,5.6-11.4
				c2.7-2.6,5.6-4.8,8.7-6.6C-1414.5,433.5-1414.4,438-1414.4,442.4z M-1415,427.4c-0.2-0.1-0.4,0-0.6,0.1c-2.2,1.3-4.3,2.8-6.3,4.4
				c2.1-4.6,4.1-9.2,6-13.8C-1415.5,421.1-1415.2,424.3-1415,427.4z M-1416.4,414.5c-0.1,0.1-0.1,0.1-0.2,0.2
				c-2.3,5.8-4.7,11.5-7.3,17.1c-0.4-3.2-1.4-6.2-2.9-9.2c3.6-3.1,7-6.4,10.1-10C-1416.5,413.3-1416.4,413.9-1416.4,414.5z"/>
		</g>
	</g>
	<g>
		<defs>
			<rect id="SVGID_1_" width="750" height="500"/>
		</defs>
		<clipPath id="SVGID_2_">
			<use xlink:href="#SVGID_1_"  style="overflow:visible;"/>
		</clipPath>
		<rect class="st1" width="750" height="500"/>
		<g class="st2">
			<g>
				<path class="st3" d="M617.2,407.9c0.6-0.2,1.3-0.3,1.9-0.6c0.3-0.1,0.4-0.5,0.1-0.7c-3.7-2.6-8-3.6-12.4-2.7
					c-0.5,0.1-0.3,0.9,0.2,0.8c4-0.8,7.8,0,11.2,2.1c-3.3,1.1-6.6,1-9.9-0.3c-0.1-0.1-0.2-0.2-0.3-0.3c-0.4-0.3-0.9,0.2-0.5,0.5
					c1.2,1.2,2.4,2.4,3.3,3.8c0.4,0.6,0.9,1.3,1.2,2c0.2,0.5,0.4,1.4-0.1,1.6c-0.2,0.1-0.9-0.2-1.1-0.3c-2.8-1-4.6-3.5-5.4-6.2
					c0-0.2,0.1-0.3,0.1-0.5c0.1-0.5-0.7-0.7-0.7-0.2c-0.8,4.2-6,5.6-9.8,5.7c0-0.1-0.1-0.2-0.1-0.3c1.6-3.1,4.1-5,7.4-6.4
					c0,0,0.1,0,0.1,0c0.5,0,0.5-0.7,0-0.7c-2,0.1-4,0.2-5.9-0.5c-1-0.4-1.9-1-2.6-1.8c-1.2-1.4-1.1-1.8,0.7-2
					c3.9-0.6,7.6,0.6,9.9,3.8c0.1,0.1,0.3,0.1,0.3-0.1c0-0.1-0.1-0.2-0.1-0.3c0.1,0,0.2,0,0.3-0.1c0.7-4.4,2.9-7.9,6.5-10.4
					c0.1,0.8,0.6,1.6,1.3,2c-3.5,1.3-6.4,5-6.9,8.6c0,0.2,0.3,0.2,0.4,0.1c1.4-4.1,3.8-6.5,7.6-8.3c0.1,0,0.1,0,0.2,0
					c0.2,0,0.3-0.2,0.3-0.3c0,0,0,0,0,0c0-0.1,0-0.2,0-0.3c-0.1-0.7-0.3-1.3-0.7-1.8c-0.3-0.3-0.9-1-1.4-1c-0.1-0.1-0.2-0.2-0.4-0.1
					c-4.1,2.3-6.9,6.6-7.3,11.3c-2-4.4-8.2-4.1-12.2-3.5c-0.2,0-0.3,0.3-0.3,0.4c0.4,1.7,1.3,2.9,2.4,3.6c0,0.4,0,0.7,0,1.1
					c-1.7,1.3-3.4,2.6-5,4c-0.1,0.1,0,0.2,0.1,0.2c1.6-1.3,3.3-2.5,4.9-3.8c0,0.6,0,1.2,0,1.8c-0.3,0.3-0.6,0.5-0.9,0.8
					c0-0.1-0.1-0.2-0.1-0.3c-0.1-0.3-0.6-0.2-0.5,0.1c0.1,0.2,0.1,0.4,0.2,0.6c-0.8,0.7-1.6,1.3-2.3,2c-0.2-0.4-0.4-0.8-0.6-1.1
					c-0.1-0.2-0.5,0-0.4,0.2c0.2,0.4,0.4,0.8,0.7,1.2c-0.5,0.5-1.1,0.9-1.6,1.4c-0.2-0.1-0.4,0.1-0.3,0.3c-0.5,0.4-0.9,0.8-1.4,1.2
					c-0.1,0.1,0.1,0.3,0.2,0.2c0.4-0.4,0.9-0.7,1.4-1.1c0.5,0.8,1,1.6,1.5,2.4c-0.4,0.5-0.9,0.9-1.3,1.4c-0.4-0.7-0.9-1.4-1.3-2.1
					c-0.2-0.3-0.6,0-0.5,0.3c0.5,0.8,1,1.5,1.4,2.3c-0.3,0.3-0.6,0.7-0.9,1c-0.4-1.2-0.7-2.5-0.7-3.9c0.2-4.3,3-7.9,6.7-9.8
					c0.2-0.1,0.1-0.6-0.2-0.5c-6.5,2.7-8.5,9.5-6.2,15.8c1.4,3.7,1.2,6.6,1,10.4c-0.1,2-0.1,4,0.7,5.9c1.3,2.9,4.1,5,7.3,5.3
					c3.2,0.3,6.1-1.2,8.1-3.7c1.4-1.8,2-4,3.2-6c1.6-2.7,3.8-4.3,6.3-6c2.5-1.7,5.4-3.4,6.6-6.4C622,415.1,619.6,411.2,617.2,407.9z
					 M612.2,393.1C612.2,393.1,612.2,393.1,612.2,393.1c0.1,0,0.1,0,0.1,0c0.3,0.2,0.5,0.4,0.8,0.7c0.4,0.4,0.6,1,0.7,1.5
					c0,0-0.1,0-0.1,0c-1-0.2-1.7-1.1-1.7-2.1C612,393.2,612.1,393.2,612.2,393.1z M595.3,404.9C595.3,404.9,595.3,404.9,595.3,404.9
					c-0.1,0.1-0.2,0.2-0.3,0.2c0-0.1,0-0.3,0-0.4C595.1,404.8,595.2,404.9,595.3,404.9z M594.5,408.2c0,0.7,0,1.4,0.1,2.1
					c0,0.2,0.3,0.2,0.4,0c0-0.8,0-1.7,0.1-2.5c0.2-0.1,0.3-0.3,0.5-0.4c0.2-0.2-0.1-0.5-0.3-0.3c-0.1,0.1-0.1,0.1-0.2,0.2
					c0-0.6,0-1.2,0-1.7c0.2-0.1,0.3-0.2,0.5-0.4c0.1,0,0.1-0.1,0-0.1c1.6,0.7,3.4,0.9,5.2,0.9c-2.7,0.9-4.8,2.9-6.3,5.3
					c-0.2-0.8-0.5-1.6-0.7-2.4C594,408.6,594.3,408.4,594.5,408.2z M589.1,412.7c0.5-0.4,1.1-0.9,1.6-1.3c0.4,0.7,0.8,1.5,1.2,2.2
					c-0.5,0.5-0.9,1-1.4,1.4C590.1,414.3,589.6,413.4,589.1,412.7z M592.1,414c0.5,0.9,1,1.8,1.5,2.7c-0.5,0.4-1,0.7-1.5,1.2
					c-0.5-0.8-0.9-1.6-1.4-2.4C591.2,414.9,591.7,414.5,592.1,414z M590.4,415.7c0.5,0.8,1,1.6,1.4,2.3c-0.5,0.4-0.9,0.9-1.3,1.4
					c-0.5-0.8-1-1.6-1.5-2.3C589.5,416.6,590,416.2,590.4,415.7z M594,439.8c-0.4-0.2-0.8-0.4-1.2-0.6c0.4-0.6,0.8-1.2,1.2-1.8
					c0.6,0.5,1.3,0.9,1.9,1.3C595.3,439.1,594.7,439.5,594,439.8C594,439.8,594,439.8,594,439.8z M593.9,436.9
					c-0.5-0.4-0.9-0.8-1.4-1.2c0.4-0.4,0.8-0.9,1.1-1.3c0.5,0.3,0.9,0.7,1.4,0.9C594.7,435.9,594.3,436.4,593.9,436.9z M592.2,435.4
					c-0.5-0.5-1-1.1-1.5-1.6c0.3-0.5,0.6-1,0.9-1.5c0.5,0.7,1,1.3,1.7,1.9C593,434.6,592.6,435,592.2,435.4z M590.2,425.2
					c-0.2,0.3-0.5,0.6-0.7,0.9c0-0.7,0-1.5-0.1-2.2c-0.1-0.6-0.2-1.3-0.4-1.9c0.2-0.4,0.5-0.7,0.8-1.1c0.6,0.8,1.2,1.7,1.8,2.5
					c-0.4,0.5-0.7,0.9-1.1,1.4c-0.3-0.6-0.5-1.3-0.6-2c-0.1-0.3-0.5-0.2-0.4,0.1C589.6,423.7,589.8,424.5,590.2,425.2z M589.4,426.5
					C589.4,426.5,589.5,426.5,589.4,426.5c0.3-0.3,0.6-0.7,0.9-1c0.4,0.8,0.8,1.5,1.3,2.2c-0.3,0.4-0.7,0.9-0.9,1.4
					c0-0.1-0.1-0.3-0.1-0.4c0-0.2-0.4-0.1-0.3,0.1c0,0.3,0.1,0.5,0.2,0.8c-0.1,0.2-0.2,0.4-0.3,0.5c-0.1,0.2,0.2,0.3,0.2,0.1
					c0-0.1,0.1-0.2,0.2-0.3c0.2,0.7,0.5,1.3,0.9,1.9c-0.3,0.5-0.6,1-0.9,1.6c-0.5-0.6-1-1.3-1.5-1.9c0,0-0.1-0.1-0.1-0.1
					C589,429.9,589.3,428.2,589.4,426.5z M590.8,429.6c0.3-0.5,0.7-1.1,1.1-1.6c0.4,0.5,0.8,1,1.3,1.5c-0.6,0.7-1.1,1.4-1.5,2.1
					C591.3,431,591,430.3,590.8,429.6z M590.6,425.2c0.4-0.5,0.8-1,1.2-1.4c0.5,0.7,1,1.5,1.6,2.2c-0.5,0.5-1,1-1.4,1.5
					C591.4,426.7,591,426,590.6,425.2z M590,420.5c0.1-0.2,0.3-0.3,0.4-0.4c0.6,0.9,1.2,1.8,1.8,2.7c-0.1,0.1-0.2,0.2-0.3,0.3
					C591.3,422.2,590.7,421.4,590,420.5z M587.7,418.4c0.3-0.3,0.7-0.7,1-1c0.5,0.8,1,1.6,1.5,2.4c-0.1,0.2-0.3,0.3-0.4,0.5
					c-0.3-0.4-0.6-0.8-0.9-1.1c-0.1-0.2-0.4,0.1-0.3,0.2c0.3,0.4,0.6,0.9,0.9,1.3c-0.2,0.3-0.5,0.7-0.7,1
					C588.5,420.6,588.1,419.5,587.7,418.4z M589,432.1c0.4,0.6,0.9,1.2,1.3,1.8c-0.1,0.2-0.2,0.4-0.3,0.6c-0.1,0.1,0.1,0.3,0.2,0.1
					c0.1-0.2,0.2-0.4,0.3-0.5c0.5,0.5,0.9,1,1.4,1.5c-0.3,0.4-0.7,0.8-1,1.2c-0.2,0.2,0.1,0.5,0.3,0.3c0.3-0.4,0.7-0.8,1-1.2
					c0.5,0.4,0.9,0.8,1.4,1.2c-0.4,0.6-0.8,1.2-1.2,1.8C590.5,437.5,589.2,435,589,432.1z M617.6,421.6c-2,2-4.7,3.3-6.9,5
					c-4.4,3.4-5.1,9.8-9.8,12.5c-2.3,1.3-4.6,1.5-6.5,0.8c0.7-0.3,1.3-0.6,1.9-1c0.2,0.1,0.4,0.3,0.7,0.4c0.1,0.1,0.2-0.1,0.1-0.2
					c-0.2-0.1-0.4-0.3-0.6-0.4c0.6-0.5,1.1-1,1.5-1.7c0.1-0.2-0.2-0.4-0.3-0.2c-0.4,0.6-0.9,1.2-1.5,1.7c-0.7-0.4-1.3-0.9-1.9-1.4
					c0.4-0.6,0.9-1.1,1.3-1.6c0.2,0.1,0.4,0.2,0.7,0.3c0.1,0,0.2-0.2,0.1-0.2c-0.2-0.1-0.4-0.2-0.6-0.3c0.5-0.6,1.1-1.2,1.7-1.8
					c0.2-0.2-0.1-0.5-0.3-0.3c-0.6,0.6-1.2,1.2-1.7,1.9c-0.5-0.3-1-0.6-1.4-0.9c0.9-1,1.8-2,2.6-3c0.2-0.2-0.1-0.5-0.3-0.3
					c-0.9,1-1.8,2-2.6,3c-0.6-0.6-1.2-1.2-1.7-2c0.5-0.8,1.1-1.5,1.7-2.2c0.6,0.5,1.2,1,1.9,1.4c0.2,0.1,0.3-0.1,0.1-0.2
					c-0.7-0.4-1.3-0.9-1.8-1.4c0.4-0.4,0.8-0.9,1.2-1.3c0.2-0.2-0.1-0.4-0.3-0.3c-0.4,0.4-0.8,0.8-1.2,1.3c-0.5-0.5-0.9-1-1.3-1.5
					c0.4-0.5,0.9-1,1.4-1.5c0.2,0.3,0.4,0.6,0.7,0.9c0.1,0.1,0.3,0,0.2-0.1c-0.2-0.3-0.4-0.7-0.6-1c0.3-0.3,0.7-0.5,1.1-0.8
					c0.2-0.1,0-0.5-0.2-0.3c-0.4,0.2-0.7,0.5-1.1,0.8c-0.5-0.8-1-1.6-1.5-2.4c0.1-0.1,0.2-0.2,0.3-0.3c0.1,0.1,0.4,0,0.3-0.2
					c0,0,0-0.1,0-0.1c0.5-0.6,1.1-1.3,1.6-1.9c0.1-0.2-0.1-0.4-0.2-0.2c-0.5,0.6-1,1.2-1.5,1.9c-0.6-0.9-1.1-1.8-1.7-2.8
					c0.4-0.5,0.9-0.9,1.4-1.3c0.3,0.6,0.7,1.1,1,1.7c0.1,0.1,0.3,0,0.2-0.1c-0.3-0.6-0.7-1.2-1-1.8c0.5-0.4,1-0.8,1.5-1.1
					c0.1,0.2,0.2,0.4,0.4,0.6c0.1,0.1,0.2,0,0.1-0.1c-0.1-0.2-0.2-0.4-0.3-0.7c0.3-0.2,0.6-0.4,0.8-0.6c0.2-0.1,0-0.5-0.2-0.3
					c-0.3,0.2-0.6,0.4-0.8,0.5c-0.5-0.9-1-1.8-1.4-2.8c0.4-0.4,0.7-0.7,1.1-1.1c0.2-0.2-0.1-0.5-0.3-0.3c-0.3,0.3-0.6,0.7-1,1
					c-0.4-0.8-0.8-1.5-1.2-2.2c0.8-0.6,1.5-1.3,2.3-1.9c0.3,0.8,0.6,1.7,0.9,2.5c-0.2,0.3-0.3,0.7-0.5,1c-0.1,0.3,0,0.6,0.3,0.6
					c0.2,0,0.5,0,0.7,0c0.1,0.1,0.2,0.1,0.3,0c3.7-0.1,8.3-1.3,9.9-4.7c0.8,3.3,3.9,5.9,7.3,6.4c0.2,0,0.4,0,0.4-0.2
					c0.7-1.4-0.1-2.7-0.9-4c-0.8-1.3-1.7-2.4-2.7-3.5c2.4,1,4.9,1.2,7.4,0.7c0,0,0,0,0,0C619.2,412.3,621.7,417.4,617.6,421.6z"/>
				<path class="st3" d="M615.2,419.9c0.7,0.5,1.7-0.3,2.1-0.8c0.7-0.8,1-1.7,0.9-2.7c0-0.1-0.2-0.1-0.2,0c0,0.2,0,0.3-0.1,0.5
					c-0.1-0.1-0.3-0.2-0.4-0.1c-0.6,0.8-1.7,0.6-2.3,1.4C614.9,418.6,614.6,419.5,615.2,419.9z M617.8,417.3
					c-0.2,0.4-0.4,0.9-0.7,1.2c-0.3,0.3-1.9,1.5-1.7,0.5C615.6,418,617.1,418.1,617.8,417.3z"/>
				<path class="st3" d="M613.3,421.7c-1.1-0.2-2.2-0.1-3.1,0.4c-0.6,0.4-1.3,1.1-0.8,1.8c0.4,0.6,1.2,0.7,1.9,0.5
					c1-0.4,1.4-1.5,2.1-2.2c0,0,0,0,0,0C613.6,422.2,613.6,421.8,613.3,421.7z M610.4,423.9c-0.5-0.1-0.8-0.4-0.4-0.9
					c0.2-0.3,0.7-0.5,1-0.6c0.7-0.3,1.4-0.3,2-0.2C612.2,422.9,611.5,424.2,610.4,423.9z"/>
				<path class="st3" d="M613.6,417.3c0,0-0.1,0.1-0.2,0.2c0-0.1-0.1-0.1-0.2-0.1c-0.9,0.3-2,0.2-2.8,0.7c-0.6,0.4-0.9,1.1-0.5,1.7
					c1,1.6,3.5-1.6,3.9-2.4C613.8,417.3,613.7,417.2,613.6,417.3z M610.2,419.4c-0.3-1.2,1.8-1.2,2.8-1.5
					C612.1,418.9,610.5,420.3,610.2,419.4z"/>
				<path class="st3" d="M602.8,433c0,0.8,0.1,1.6-0.3,2.4c-0.2,0.3-0.4,0.6-0.7,0.8c-0.4,0.3-1.4,0.6-1.5-0.2
					c-0.1-0.7,0.8-1.1,1.2-1.4c0.4-0.3,0.8-0.6,1-1c0.2-0.3-0.3-0.6-0.5-0.3c-0.5,0.9-1.7,1.1-2.2,2.1c-0.3,0.6-0.2,1.4,0.6,1.6
					c0.8,0.3,1.7-0.2,2.2-0.8c0.7-0.8,0.7-2.1,0.4-3.1C603,432.8,602.8,432.9,602.8,433z"/>
			</g>
			<g>
				<path class="st3" d="M649.6,439.6c-3.1-2.9-7.7-3.1-11.5-1.6c-3,1.2-5.4,3.8-8.6,4.6c-2.9,0.7-5.9,0-8.7,1.1
					c-7.5,2.9-9.5,12.5-3.7,17.8c-2.5-0.6-5.2-0.8-7.3-1c-0.3,0-0.6,0.2-0.4,0.5c1.6,2.4,3.4,5.2,5.8,6.8c2.2,1.5,4.9,1.3,7.4,0.7
					c-3.3,3.7-5.2,8.5-5.5,13.5c0,0.2,0.2,0.3,0.4,0.3c-0.1,0-0.1,0.1,0,0.2c1,0.3,4.3,2.2,4.4-0.2c0-0.4-0.1-0.7-0.4-0.9
					c-0.2-2.1-0.9-3.9-0.4-6.1c0.5-1.7,1.3-3.2,2.3-4.7c0.4,2,1.3,3.9,2.7,5.4c1.7,2,4.7,2.9,5.9,5.2c0.2,0.4,0.7,0.2,0.7-0.2
					c0.1-2.6-0.1-5.9-1.4-8.2c5.8,4.4,15.2,3.5,16.8-4.9c0.5-2.7-0.5-5.4-0.4-8.1c0-3.7,2-6.4,3.4-9.6
					C652.6,446.4,652.7,442.6,649.6,439.6z M634.7,441.4c0.7,0.5,1.4,1,2.1,1.5c-0.9,0.7-1.8,1.5-2.7,2.2c-0.8-0.4-1.6-0.9-2.4-1.3
					c0.1-0.1,0.3-0.2,0.4-0.3c0.2-0.1-0.1-0.5-0.3-0.3c-0.2,0.1-0.4,0.3-0.6,0.4c-0.2-0.1-0.5-0.3-0.7-0.4c1.4-0.5,2.8-1.2,4.1-1.9
					C634.6,441.3,634.7,441.3,634.7,441.4z M639.3,441.5c0.9,0.1,1.8,0.7,2.7,0.9c-0.8,0.7-1.5,1.4-2.3,2.2
					c-0.8-0.5-1.5-1.1-2.3-1.6C638.1,442.5,638.7,442,639.3,441.5z M644.4,440.9c0.1-0.2,0.3-0.3,0.4-0.5c0.8,0.6,1.7,1.1,2.5,1.7
					c-0.8,0.5-1.6,1-2.4,1.6c-0.7-0.4-1.3-0.8-2-1.3C643.6,442.3,644.5,441.8,644.4,440.9C644.4,440.9,644.4,440.9,644.4,440.9z
					 M642.5,441.9c-0.2,0-0.4,0-0.6-0.1c-0.6-0.4-1.1-0.7-1.7-1.1c0.5-0.3,1.1-0.5,1.7-0.5c0.3,0,0.7,0,1.1,0
					c0.3,0.1,0.6,0.3,0.6,0.5C643.3,441.2,642.9,441.6,642.5,441.9z M640,441.1c-0.1,0-0.1,0-0.2-0.1c0,0,0,0,0,0
					C639.9,441,639.9,441.1,640,441.1z M639.5,444.9c-0.7,0.7-1.5,1.4-2.2,2.1c0,0,0-0.1-0.1-0.1c-0.9-0.5-1.7-1-2.6-1.4
					c0.9-0.7,1.8-1.5,2.7-2.2C638,443.8,638.7,444.3,639.5,444.9z M628.7,446.2c0.9-0.7,1.7-1.5,2.6-2.2c0.8,0.5,1.6,0.9,2.4,1.4
					c-0.9,0.8-1.8,1.5-2.7,2.3C630.3,447.2,629.5,446.7,628.7,446.2z M630.7,448c-0.7,0.6-1.4,1.2-2,1.7c-0.8-0.4-1.6-0.9-2.3-1.4
					c0.7-0.6,1.4-1.2,2.1-1.8C629.2,447,629.9,447.5,630.7,448z M630.3,443.3c0,0.1,0,0.1,0.1,0.2c0.2,0.1,0.4,0.2,0.6,0.3
					c-0.9,0.7-1.8,1.4-2.6,2.1c-1-0.6-2-1.3-3-1.9c0.9-0.1,1.9-0.2,2.8-0.3C628.9,443.7,629.6,443.5,630.3,443.3z M616.1,448.6
					c2.3-3.5,5.5-4.1,9-4.5c0,0.1,0,0.1,0,0.2c1,0.7,1.9,1.3,2.9,2c-0.6,0.5-1.2,1.1-1.8,1.6c0.1-0.2,0.1-0.5,0-0.8
					c-0.3-1-1.7-1.1-2.5-1c-0.1,0-0.1,0-0.2,0c-0.1-0.1-0.3-0.2-0.4-0.3c0,0,0.1-0.1,0.1-0.1c0.2-0.2-0.1-0.5-0.3-0.3
					c0,0-0.1,0.1-0.1,0.1c-0.2-0.2-0.4-0.4-0.6-0.6c-0.1-0.1-0.3,0.1-0.2,0.2c0.2,0.2,0.4,0.4,0.6,0.6c-0.6,0.7-1.3,1.4-1.9,2.1
					c-0.4-0.3-0.9-0.6-1.3-0.9c0.5-0.4,1.1-0.9,1.6-1.3c0.2-0.1-0.1-0.4-0.2-0.2c-0.5,0.5-1.1,0.9-1.6,1.4c-0.2-0.1-0.4-0.3-0.6-0.4
					c-0.1-0.1-0.2,0.1-0.1,0.2c0.2,0.1,0.3,0.2,0.5,0.4c-1.1,1-2.3,1.9-3.4,2.9c-0.1,0.1,0,0.2,0.1,0.1c0,0,0.1,0,0.1-0.1
					c0,0,0,0,0,0c0.4,0.4,0.7,0.7,1.1,1c-0.1,0.1-0.1,0.2-0.2,0.3c-0.3,0.5-0.4,1-0.4,1.6c-0.2,0.3-0.5,0.5-0.7,0.8
					c-0.1,0.1,0.1,0.3,0.2,0.2c0.2-0.2,0.4-0.4,0.5-0.6c0,0.5,0.2,0.9,0.4,1.4c0,0.2,0.3,0.4,0.4,0.2c0.6-0.8,1.6-1.2,2.2-2.1
					c0.3,0.2,0.6,0.4,1,0.5c-0.9,0.8-1.7,1.6-2.4,2.5c-0.7-0.4-1.5-0.8-2.2-1.2c-0.1-0.1-0.2,0.1-0.1,0.2c0.7,0.4,1.4,0.8,2.1,1.2
					c-0.5,0.6-1,1.2-1.4,1.8c-0.4-0.3-0.8-0.6-1.2-0.8C614.2,454.2,614.4,451.2,616.1,448.6z M623.6,451.4c0.5,0.2,0.5,0.7,0.2,1.1
					c-0.2,0.3-0.6,0.4-0.9,0.5c-0.6,0.1-1.1,0.1-1.6,0.3c0,0-0.1,0-0.1,0c0.7-0.6,1.5-1.2,2.3-1.8
					C623.4,451.3,623.5,451.3,623.6,451.4z M616.9,452.5c0.3-0.3,0.5-0.6,0.8-0.9c0.4,0.3,0.8,0.6,1.2,0.8c-0.5,0.7-1.5,1.3-2,1.8
					C616.7,453.7,616.8,453.1,616.9,452.5z M625.7,447.8c-0.6-0.4-1.2-0.9-1.7-1.3c0.5,0,0.9,0,1.3,0.3
					C625.8,447.2,625.8,447.5,625.7,447.8z M625.4,448.1c-0.5,0.4-1.5,0.7-1.9,0.7c-0.6,0-1.2-0.1-1.8-0.2c-0.2-0.2-0.5-0.3-0.7-0.5
					c0.1-0.1,0.2-0.2,0.2-0.3c0.6-0.5,1.4-1.1,2.2-1.3C624.1,447.1,624.7,447.6,625.4,448.1z M622.5,446.4c0.1-0.1,0.2-0.3,0.4-0.4
					c0.1,0.1,0.1,0.1,0.2,0.2C622.9,446.3,622.7,446.3,622.5,446.4z M618.7,450.1c-0.6-0.2-1.2,0.1-1.7,0.6c-0.4-0.3-0.8-0.6-1.1-1
					c1.1-0.9,2.1-1.7,3.2-2.6c0.4,0.3,0.9,0.7,1.3,1C619.9,448.8,619.3,449.4,618.7,450.1z M618.1,450.7c-0.1,0.2-0.3,0.3-0.4,0.5
					c0,0,0,0-0.1-0.1C617.8,451,618,450.8,618.1,450.7z M617.5,451.5c-0.1,0.1-0.2,0.3-0.4,0.4C617.2,451.7,617.3,451.6,617.5,451.5
					C617.4,451.4,617.5,451.4,617.5,451.5z M617.9,451.4c0.2-0.3,0.5-0.5,0.7-0.8c0.2,0,0.4,0.2,0.5,0.6c0.1,0.4,0.1,0.7-0.1,1
					C618.7,451.9,618.3,451.7,617.9,451.4z M619,450.2c0.5-0.5,1-1.1,1.5-1.6c0.4,0.2,0.9,0.4,1.3,0.5c0.6,0.4,1.2,0.9,1.7,1.3
					c-0.1,0.1-0.3,0.3-0.4,0.4c-1,0.1-2,1.1-2.4,2c-0.1,0-0.1,0.1-0.2,0.1c-0.4-0.2-0.7-0.4-1.1-0.6c0,0,0,0,0,0
					C619.8,451.6,619.7,450.7,619,450.2z M622.7,449.3c0.7,0.1,1.4,0.1,2-0.1c0.1,0,0.1-0.1,0.2-0.1c-0.4,0.3-0.7,0.7-1.1,1
					C623.5,449.8,623.1,449.6,622.7,449.3z M615.2,457.2c0.3,0.2,0.6,0.5,0.9,0.7c-0.1,0.2-0.3,0.4-0.4,0.5
					C615.5,458,615.3,457.6,615.2,457.2z M621.2,482.5c-0.7,1.1-2.7-0.4-3.7-0.3c0.1,0,0.1-0.1,0.1-0.1c0.6-0.2,1.3-0.4,1.9-0.5
					C620.1,481.6,621.8,481.5,621.2,482.5z M631.9,479.8c-1-1.2-2.3-1.9-3.6-2.8c-2.4-1.8-3.8-4.3-4.3-7.1c0-0.1,0-0.1-0.1-0.1
					c0.1-0.2,0.2-0.3,0.3-0.5c0.2-0.4-0.3-0.7-0.6-0.3c-1.4,2-2.8,4.2-3.3,6.6c-0.4,2,0,3.8,0.6,5.6c-0.9-0.3-2.4,0.1-3.3,0.4
					c0.6-5,2.5-9.2,5.6-13.2c0.2-0.2-0.1-0.5-0.3-0.3c0,0,0,0.1-0.1,0.1c0,0-0.1-0.1-0.2-0.1c-2.9,0.3-5.6,0.7-8-1.4
					c-1.7-1.5-3.1-3.4-4.3-5.3c3.4,0.4,8.2,0.6,10.6,3.1c0.2,0.4,0.4,0.7,0.7,1c0.2,0.4,0.4,0.8,0.5,1.3c0.1,0.4,0.7,0.2,0.7-0.2
					c0-0.2-0.1-0.3-0.1-0.4c0-0.1,0-0.1,0-0.2c0,0,0,0-0.1-0.1c-0.3-0.8-0.7-1.5-1.2-2.1c-0.4-1.3-0.4-2.6,0-4.1
					c0.3-1.2,2.2-5.2,3.5-5c0.5,0.1,1.6,3.1,1.6,3.1c0.4,1,0.6,2.1,0.7,3.2c0,2.1-0.7,4-2.2,5.5c-0.4,0.4,0.2,1,0.6,0.6
					c0.1-0.1,0.1-0.1,0.1-0.2c0.1,0,0.1,0.1,0.2,0c1.8-1.2,3.7-1.8,5.9-1.7c1.4,0.1,2.8,0.4,4.1,0.8c0.9,0.3,2.2,0.2,1.8,1.4
					c-0.4,1.4-3.3,2.4-4.4,2.7c-2.2,0.6-4.3,0.3-6.3-0.8c-0.4-0.2-0.7,0.3-0.5,0.6c0,0,0,0,0,0c-0.2,0-0.2,0.3,0,0.4
					C631.2,471.4,632,475.8,631.9,479.8z M645.4,471.2c-4,5.3-10.8,4-14.9-0.2c3.4,0.3,6.8-1.3,8.8-4.3c0.1-0.2,0-0.5-0.2-0.5
					c-3.9-1.4-8.6-2.8-12.3-0.3c2.6-3.8,1-8.7-1.5-12.3c-0.1-0.2-0.5-0.3-0.7-0.1c-2,2.4-4.7,6.2-4.1,9.5c-0.7-0.5-1.5-0.8-2.4-1.1
					c0,0,0-0.1-0.1-0.1c-0.9-0.9-1.6-1.8-2.2-2.9c0.2-0.2,0.3-0.4,0.5-0.7c0.8,0.6,1.5,1.2,2.3,1.7c0.2,0.1,0.3-0.1,0.2-0.3
					c-0.6-0.5-1.1-1.1-1.7-1.6c-0.1-0.1-0.4,0.1-0.2,0.2c0,0,0.1,0.1,0.1,0.1c-0.2-0.1-0.4-0.3-0.6-0.4c0.5-0.6,1-1.2,1.5-1.8
					c0.9,0.5,1.8,1,2.6,1.5c0.2,0.1,0.3-0.2,0.2-0.3c-0.9-0.5-1.7-1-2.6-1.4c0.8-0.9,1.6-1.7,2.5-2.5c0,0,0,0,0.1,0
					c0,0.1,0.1,0.3,0.3,0.2c0.1,0,0.1,0,0.2,0c0.3,0.1,0.6,0.3,0.9,0.4c0.2,0.1,0.3-0.3,0.1-0.3c-0.1,0-0.2-0.1-0.3-0.1
					c0.8-0.1,1.5-0.2,2.1-0.8c0.4-0.5,0.6-1.2,0-1.7c-0.1-0.1-0.2-0.1-0.2-0.2c0,0,0,0,0,0c0.1-0.1,0.1-0.1,0.1-0.2
					c0.4,0.3,0.8,0.6,1.2,0.9c0.2,0.2,0.4-0.2,0.2-0.4c-0.4-0.3-0.9-0.6-1.3-0.9c0.6-0.6,1.2-1.1,1.9-1.7c0.7,0.5,1.5,1,2.3,1.4
					c-1.1,0.9-2.2,1.8-3.2,2.7c-0.1,0.1,0,0.3,0.2,0.2c1.1-0.9,2.3-1.8,3.4-2.7c0.3,0.2,0.7,0.4,1,0.5c0.2,0.1,0.5-0.2,0.2-0.4
					c-0.3-0.2-0.6-0.3-0.9-0.5c0.7-0.6,1.4-1.1,2.1-1.7c0.7,0.5,1.4,0.9,2.1,1.4c0.2,0.1,0.4-0.2,0.2-0.4c-0.6-0.4-1.3-0.8-1.9-1.3
					c0.9-0.8,1.9-1.5,2.8-2.3c0.9,0.5,1.8,1,2.7,1.5c-1.2,1.1-2.4,2.2-3.7,3.2c-0.1,0.1,0.1,0.3,0.2,0.2c2.2-1.8,4.4-3.6,6.6-5.5
					c0.2,0.2,0.5,0.4,0.7,0.5c0.2,0.1,0.4-0.2,0.2-0.3c-0.2-0.2-0.4-0.3-0.6-0.5c0.8-0.7,1.6-1.4,2.3-2.2c0.7,0.4,1.3,0.8,2,1.2
					c-1.4,1.1-2.6,2.3-3.7,3.7c-0.1,0.2,0.1,0.4,0.2,0.2c1.2-1.4,2.5-2.6,3.9-3.7c0,0,0.1,0.1,0.1,0.1c0.2,0.2,0.4-0.2,0.3-0.4
					c0.8-0.6,1.6-1.1,2.5-1.5c0.6,0.4,1.1,0.8,1.7,1.1c0.3,0.2,0.6-0.3,0.3-0.5c-0.5-0.3-0.9-0.6-1.4-0.9c0.2-0.1,0.4-0.2,0.6-0.3
					c0.3-0.1,0-0.6-0.3-0.5c-0.3,0.1-0.5,0.3-0.8,0.4c-0.9-0.6-1.8-1.2-2.7-1.8c0.1-0.1,0.2-0.2,0.2-0.2c0.2-0.2-0.1-0.6-0.3-0.3
					c-0.1,0.1-0.2,0.2-0.3,0.3c-0.5-0.4-1.1-0.7-1.6-1.1c-0.2-0.2-0.5,0.2-0.2,0.4c0.5,0.3,1,0.7,1.5,1c-0.1,0.1-0.2,0.2-0.2,0.2
					c-0.4-0.5-1.1-0.6-1.7-0.6c-0.9,0-1.8,0.3-2.5,0.8c-0.2-0.1-0.3-0.2-0.5-0.3c-0.2-0.1-0.4,0.2-0.2,0.3c0.1,0.1,0.3,0.2,0.4,0.2
					c-0.1,0-0.1,0.1-0.2,0.1c0,0-0.1,0-0.1,0c0,0-0.1,0-0.1,0c-0.2,0-0.2,0.1-0.2,0.2c-0.6,0.5-1.3,1-1.9,1.5
					c-0.7-0.5-1.5-1.1-2.2-1.6c0,0,0,0,0,0c4.7-2.6,9.2-5.4,14.1-0.9c6.1,5.7-2.2,13.1-2.3,19.5
					C646.6,463.9,648.3,467.3,645.4,471.2z"/>
			</g>
		</g>
		<path class="st4" d="M20.2,205c-0.6,0-0.6,0.9,0,0.9c3,0.3,6.1,1.8,6.7,5.1c0.6,3.3-3.1,6.6-6.3,5c-0.3-0.2-0.6,0.3-0.3,0.5
			c3.2,1.7,7.2-0.9,7.6-4.4C28.2,208.1,24,204.9,20.2,205z"/>
		<path class="st5" d="M-40.3,405.2c18.1-19.3,51-41.9,94-32.8c43,9.1,34,69.1,54.4,80.4c20.4,11.3,31.7-19.3,82.7,1.1
			c51,20.4,30.6,96.3,30.6,96.3l-251.4-1.1L-40.3,405.2z"/>
		<path class="st6" d="M-26.8,295.4c0,0,74.7,23.8,121.2-44.2c46.4-68-6.8-122.3,12.5-156.3c19.3-34,105.3,9.1,139.3-51
			c34-60-19.3-120-19.3-120L-24.5-51.2L-26.8,295.4z"/>
		<path class="st7" d="M410.4,533.2c-39.6-43.9-45.3-98.5-7.9-128s148.4,28.3,173.3-6.8c24.9-35.1-28.3-182.3,64.6-239
			s172.1-3.4,210.6,121.2c38.5,124.6-4.5,263.9-98.5,319.4C658.4,655.5,452.3,579.6,410.4,533.2z"/>
		<path class="st5" d="M725.9,377.3c34.5,0.4,66-17.9,85.9-45.5c18.2-25.4,34.2-75.1-4.6-90.6c-0.3-0.1-0.6-0.2-0.8-0.2
			c-7.2-3-15.6-2.9-23.2-0.2c-15.6,5.6-24.8,20.6-34.2,33.2c-6,8.1-12.8,15.5-22.2,19.8c-9.6,4.3-20.3,5.5-30.3,8.4
			c-12.9,3.8-26.8,11.5-31.6,25C653.1,361,701.5,377,725.9,377.3z"/>
		<path class="st6" d="M670.4,324c35.1,10.4,85.1-1.5,109.7-29.4c12.4-14,19.5-34.2,13.7-52.7c-2.9-9-8.6-16.7-16.1-21.7
			c-0.2-0.4-0.4-0.7-0.8-1c-12.9-11.5-28.9-5.5-42,2.4c-10.4,6.3-21.4,12.6-33.1,5.4c-7.3-4.5-12.9-11.3-20.1-15.9
			c-30-19.2-65.2,4.8-66.9,37.9C613.2,283,638.6,314.6,670.4,324z M630.6,229.7c12.5-20,37.2-18.1,53.4-4.5
			c10,8.4,19.9,17.2,34,14.9c14.9-2.5,32.7-22.4,48.4-17.9c15.8,8.4,23.2,28.2,17.7,46c-6,19.5-23,32.5-41.3,39.8
			c-37.8,15.1-85.4,14.3-108.8-23.9C624.5,268.4,620.3,246.2,630.6,229.7z"/>
		<g class="st2">
			<path class="st8" d="M713.6,355.5c-1.5,0.8-3,1.8-4.4,2.9c-1-1.3-2.1-2.5-3.3-3.7c-0.8-0.8-1.9,0.4-1.2,1.2
				c1,1.2,1.9,2.5,2.8,3.8c-1.3,1.1-2.6,2.3-3.8,3.5c-0.6,0.6,0.3,1.5,0.9,0.9c1.2-1,2.5-2,3.8-2.9c0.5,0.9,1,1.9,1.8,2.6
				c0.9,0.8,2.3,0,2-1.1c-0.3-1-1-1.9-1.7-2.8c1.4-0.9,2.8-1.7,4.2-2.5C716.1,356.8,714.9,354.8,713.6,355.5z"/>
			<path class="st8" d="M727.3,371.8c0.7-0.6,0-2-0.9-1.6c-1.7,0.7-3.2,1.9-4.7,3c-0.2,0.1-0.3,0.2-0.5,0.3
				c-1.1-1.3-2.3-2.5-3.5-3.6c-0.6-0.6-1.7,0.2-1.2,0.9c0.9,1.4,1.9,2.7,2.9,4c-0.9,0.6-1.8,1.2-2.6,1.9c-0.8,0.6-0.1,1.8,0.8,1.3
				c1-0.6,2-1.2,3-1.7c1,1.3,1.9,2.7,3.1,3.7c1,0.9,2.8-0.3,2-1.5c-0.8-1.3-1.9-2.4-3-3.5c0.1,0,0.1-0.1,0.2-0.1
				C724.2,373.9,726,373.1,727.3,371.8z"/>
			<path class="st8" d="M730.2,356.2c-1.2,0.7-2.3,1.5-3.4,2.3c-0.8-1-1.7-2-2.7-2.9c-0.6-0.5-1.3,0.1-1,0.8
				c0.5,1.2,1.2,2.2,1.9,3.3c-1.1,0.8-2.3,1.6-3.4,2.4c-0.7,0.5-0.1,1.5,0.6,1.1c1.2-0.7,2.4-1.4,3.6-2.1c0.7,1.1,1.4,2.2,2.3,3.1
				c1,0.9,2.5-0.2,1.8-1.4c-0.5-1-1.4-2-2.2-2.9c1.1-0.7,2.2-1.3,3.2-2C732.1,357.1,731.2,355.5,730.2,356.2z"/>
			<path class="st8" d="M711.4,372.7c-2.2,0.3-4.4,1.8-6.3,3c-0.8-1-1.6-1.9-2.5-2.7c-0.7-0.7-1.8,0.4-1.1,1.1
				c0.8,0.8,1.4,1.7,2.1,2.7c-1.7,1.2-3.2,2.5-4.6,3.9c-0.6,0.7,0.3,1.5,1,1c1.5-1.2,3-2.3,4.6-3.4c0.5,0.8,0.9,1.7,1.3,2.6
				c0.7,1.7,3.2,0.6,2.3-1c-0.6-0.9-1.2-1.8-1.8-2.7c1.9-1,4.1-1.6,5.8-2.8C713,373.8,712.4,372.6,711.4,372.7z"/>
		</g>
		<g class="st2">
			<path class="st9" d="M59.1,227.7c-0.8,4.2-4.2,7-8.4,7c-4.5,0-6.3-3.5-9.2-6.2c-2.4-2.3-5.8-4-9-2.5c-4,1.9-5.3,10.4-10.4,9.5
				c-4-0.7-5.8-6.6-9.8-8c-2.6-0.9-4.7,0.1-6.7,1.9c-1.5,1.4-2.5,4.2-4.2,5.2c-4.4,2.4-5.9-0.5-8.5-3.2c-6.4-6.8-12.5,0.6-11,8
				c0.1,0.6,1.1,0.5,1.1-0.1c-0.1-2.9,0.2-12,7.6-7.3c0.8,0.5,1.4,1.6,2,2.3c1.2,1.4,2.3,2.9,4.1,3.5c2.4,0.8,4.5-0.1,6.2-1.7
				c1.6-1.5,2.5-3.9,4.2-5.2c4.1-3.2,6.4-0.3,8.9,2.4c2,2.1,4.1,4.6,7.2,4.5c3.2-0.1,4.9-2.8,6.4-5.2c2.7-4.3,5.8-6.4,10.3-2.5
				c1.9,1.6,3.2,3.8,5.3,5.3c6.1,4.2,14.6,0.1,16-7C61.4,226.9,59.3,226.3,59.1,227.7z"/>
			<path class="st9" d="M59.1,210.3c-0.8,4.2-4.2,7-8.4,7c-4.5,0-6.3-3.5-9.2-6.2c-2.4-2.3-5.8-4-9-2.5c-4,1.9-5.3,10.4-10.4,9.5
				c-4-0.7-5.8-6.6-9.8-8c-2.6-0.9-4.7,0.1-6.7,1.9c-1.5,1.4-2.5,4.2-4.2,5.2c-4.4,2.4-5.9-0.5-8.5-3.2c-6.4-6.8-12.5,0.6-11,8
				c0.1,0.6,1.1,0.5,1.1-0.1c-0.1-2.9,0.2-12,7.6-7.3c0.8,0.5,1.4,1.6,2,2.3c1.2,1.4,2.3,2.9,4.1,3.5c2.4,0.8,4.5-0.1,6.2-1.7
				c1.6-1.5,2.5-3.9,4.2-5.2c4.1-3.2,6.4-0.3,8.9,2.4c2,2.1,4.1,4.6,7.2,4.5c3.2-0.1,4.9-2.8,6.4-5.2c2.7-4.3,5.8-6.4,10.3-2.5
				c1.9,1.6,3.2,3.8,5.3,5.3c6.1,4.2,14.6,0.1,16-7C61.4,209.5,59.3,208.9,59.1,210.3z"/>
			<path class="st9" d="M59.1,193c-0.8,4.2-4.2,7-8.4,7c-4.5,0-6.3-3.5-9.2-6.2c-2.4-2.3-5.8-4-9-2.5c-4,1.9-5.3,10.4-10.4,9.5
				c-4-0.7-5.8-6.6-9.8-8c-2.6-0.9-4.7,0.1-6.7,1.9c-1.5,1.4-2.5,4.2-4.2,5.2c-4.4,2.4-5.9-0.5-8.5-3.2c-6.4-6.8-12.5,0.6-11,8
				c0.1,0.6,1.1,0.5,1.1-0.1c-0.1-2.9,0.2-12,7.6-7.3c0.8,0.5,1.4,1.6,2,2.3c1.2,1.4,2.3,2.9,4.1,3.5c2.4,0.8,4.5-0.1,6.2-1.7
				c1.6-1.5,2.5-3.9,4.2-5.2c4.1-3.2,6.4-0.3,8.9,2.4c2,2.1,4.1,4.6,7.2,4.5c3.2-0.1,4.9-2.8,6.4-5.2c2.7-4.3,5.8-6.4,10.3-2.5
				c1.9,1.6,3.2,3.8,5.3,5.3c6.1,4.2,14.6,0.1,16-7C61.4,192.2,59.3,191.6,59.1,193z"/>
		</g>
		<path class="st10" d="M658,127.9c-26.8,8.5-51.2,24.6-68.9,46.6c-8.7,10.8-15.3,22.9-19.3,36.2c-4.2,14.3-5.5,29.2-6.1,44.1
			c-1.2,29.9,0.2,61.3-12.1,89.2c-6.4,14.5-16.2,27.6-31.9,32.3c-16.8,5-34.6,1.9-51.4-1.3c-27.3-5.2-66.1-10.9-82,18.8
			c-0.1,0.2,0.2,0.5,0.4,0.2c17.7-30.1,56.7-21.5,84.6-15.5c14.8,3.2,30.2,5.8,45.3,2.8c13.7-2.7,24.2-10.8,31.9-22.3
			c15.3-23,16.7-51.5,16.6-78.3c-0.1-31.1-0.7-63.8,15.5-91.6c16.9-28.8,46.2-49.9,77.7-60.1C659,128.8,658.7,127.6,658,127.9z"/>
		<g class="st2">
			<path class="st11" d="M229.9,474.8c-1.7-12.2-4.9-24.4-12.6-34.2c-14-18-36.4-16.8-57-15.8c-10.8,0.5-22.7,1-32.5-4.5
				c-10.8-6-15.3-17.9-20.5-28.4c-9.8-20-26.8-33.8-48.4-39.7c-27.7-7.6-57.6,0-82.2,13.5c-0.7,0.4-0.1,1.4,0.6,1.1
				c23.6-11.2,50.1-18,76.1-12c22.5,5.3,40.3,19.2,50.3,40c4.5,9.3,8.6,19.3,16.8,26c6.9,5.6,15.4,7.9,24.1,8.5
				c20.1,1.5,43.8-7.1,61.9,5.2c11.8,8,17.3,22.1,19.7,35.6c2.8,15.4,3,31.1,4.8,46.6c0.2,1.6,2.7,1.7,2.6,0
				C232.8,502.8,231.8,488.6,229.9,474.8z"/>
			<path class="st11" d="M562.9-13.8C549.2,26.4,528.1,68,487.4,86.4c-19.9,9-42.2,10-63.2,4.5c-21-5.5-43.8-17.3-57-35.2
				c-14.3-19.5-14.3-45.2-14.4-68.3c0-0.5-0.7-0.5-0.7,0c-0.6,21.4-0.9,44.5,10,63.7C372.9,70.2,394,82.8,414,90.1
				c20.5,7.5,43.2,9.3,64.1,2.7c20.5-6.4,38.4-19.8,52-36.2c16.8-20.2,27.4-44.8,34.3-70C564.7-14.3,563.3-14.7,562.9-13.8z"/>
			<path class="st11" d="M566.4-15.4c-4.9,42.4-28,85.4-67.8,104.2c-43.1,20.4-102.3,11.7-133.7-25.7c-17-20.2-24.7-48.3-18.8-74.2
				c0.1-0.3-0.4-0.4-0.4-0.1c-6.5,22.8-1.5,46.9,11.3,66.8c12.8,19.9,33.2,33.6,55.6,40.5c24.3,7.4,51.3,7.3,75.4-0.8
				c21.8-7.4,40.2-21.9,53.7-40.4c15-20.5,23.8-45.1,27-70.2C569-16.9,566.6-16.9,566.4-15.4z"/>
		</g>
		<g class="st2">
			<path class="st9" d="M199.5,17.3c-0.8-2.4-3.7-4.2-6-3.2c-2.9,0.2-5.3,3.1-5,6c0.4,3.2,4,5.4,7.1,4.6
				C198.7,23.9,200.4,20.3,199.5,17.3z M194.7,22.8c-1.8,0.2-3.8-1.2-4.1-2.9c-0.3-1.7,0.6-3.1,1.9-3.9c0.2,0.1,0.5,0.2,0.8,0
				c2-1,4.3,0.4,4.6,2.6C198,20.5,196.7,22.6,194.7,22.8z"/>
			<path class="st9" d="M208.9,43.8c-0.8-2.7-3.9-4.8-6.7-4.2c-3.7-0.8-7.3,2.4-7.1,6.2c0.2,3.9,4.1,6.9,7.9,6.4
				C206.7,51.7,210,47.7,208.9,43.8z M202.6,50.2c-2.6,0.2-5.4-1.7-5.6-4.4c-0.2-2.2,1.4-4,3.3-4.8c0.1,0.3,0.4,0.6,0.8,0.5
				c2.3-0.5,4.7,0.2,5.7,2.4C208,46.7,205.5,49.9,202.6,50.2z"/>
			<path class="st9" d="M219.3,48.6c-4,0.8-7,4.9-6.7,9c0.3,4.9,5.3,8,10,7.5C234.5,63.7,229.3,44.3,219.3,48.6z M221.6,63
				c-3.5,0-6.9-2.4-6.9-6.1c0-2.9,1.9-5.4,4.4-6.7c0.1,0,0.2,0,0.3,0C228.7,48,230.8,63,221.6,63z"/>
			<path class="st9" d="M217.4,24.7c-0.1-0.1-0.3-0.2-0.5-0.2c-1.6-0.9-3.7-0.7-5.1,0.6c-1.9,1.7-1.5,4.5,0.4,6
				c1.8,1.5,4.5,1.4,5.9-0.6C219.3,28.7,219.1,26,217.4,24.7z M213.3,29.8c-2.6-2.2,0.2-5.3,2.8-4.6c0,0.2,0,0.4,0.2,0.6
				C218.8,27.8,216.1,32.1,213.3,29.8z"/>
			<path class="st9" d="M181.7,32.8c-0.2-0.1-0.3-0.1-0.5-0.1c-0.1-0.2-0.3-0.2-0.5-0.2c-3,0.8-6.4,2.3-7.3,5.6
				c-0.8,3.1,1.4,6.3,4.4,7c3,0.7,6.2-1.3,7.2-4.1C186.2,37.9,184.5,34.4,181.7,32.8z M183.4,39.9c-0.6,2.4-3.4,4.2-5.8,3.1
				c-2.3-1-3.2-3.7-1.9-5.9c1-1.7,2.9-2.7,4.7-3.5c0,0.2,0.1,0.5,0.4,0.6C182.6,35.5,184,37.7,183.4,39.9z"/>
			<path class="st9" d="M201.6,61.7c-0.1-0.2-0.4-0.4-0.7-0.5c-4.7-0.5-9.2,3.6-9.5,8.3c-0.3,4.7,3.7,9.3,8.4,9.6
				c4.7,0.3,9.3-3.4,9.7-8.1C210,66.3,206.3,62,201.6,61.7z M207.4,70.7c-0.4,3.7-4.4,6.9-8.2,6.1c-3.3-0.7-5.8-4-5.6-7.3
				c0.3-4,4-6.2,7.5-6.7c0.2,0,0.4-0.1,0.5-0.3C205,63.8,207.8,66.9,207.4,70.7z"/>
			<path class="st9" d="M226.8,76.1c-0.1,0-0.2,0-0.3,0.1c-0.1-0.1-0.1-0.1-0.2-0.1c-2.4-0.5-4.3,2.5-4.4,4.5
				c-0.1,2.6,2,4.5,4.6,4.5c2.4,0,4.7-1.7,4.7-4.2C231.2,78.5,229.3,76.2,226.8,76.1z M226.4,83.6c-1.7,0-3.1-1.2-3-3
				c0.1-1.9,1.5-2.6,2.9-3.5c0,0,0.1-0.1,0.1-0.1c0.1,0,0.1,0.1,0.2,0.1C230.4,77.8,230.7,83.7,226.4,83.6z"/>
		</g>
		<g class="st2">
			<path class="st12" d="M412.1,467.9c-0.8,4.2-4.2,7-8.4,7c-4.5,0-6.3-3.5-9.2-6.2c-2.4-2.3-5.8-4-9-2.5c-4,1.9-5.3,10.4-10.4,9.5
				c-4-0.7-5.8-6.6-9.8-8c-2.6-0.9-4.7,0.1-6.7,1.9c-1.5,1.4-2.5,4.2-4.2,5.2c-4.4,2.4-5.9-0.5-8.5-3.2c-6.4-6.8-12.5,0.6-11,8
				c0.1,0.6,1.1,0.5,1.1-0.1c-0.1-2.9,0.2-12,7.6-7.3c0.8,0.5,1.4,1.6,2,2.3c1.2,1.4,2.3,2.9,4.1,3.5c2.4,0.8,4.5-0.1,6.2-1.7
				c1.6-1.5,2.5-3.9,4.2-5.2c4.1-3.2,6.4-0.3,8.9,2.4c2,2.1,4.1,4.6,7.2,4.5c3.2-0.1,4.9-2.8,6.4-5.2c2.7-4.3,5.8-6.4,10.3-2.5
				c1.9,1.6,3.2,3.8,5.3,5.3c6.1,4.2,14.6,0.1,16-7C414.5,467.1,412.3,466.5,412.1,467.9z"/>
			<path class="st12" d="M412.1,450.6c-0.8,4.2-4.2,7-8.4,7c-4.5,0-6.3-3.5-9.2-6.2c-2.4-2.3-5.8-4-9-2.5c-4,1.9-5.3,10.4-10.4,9.5
				c-4-0.7-5.8-6.6-9.8-8c-2.6-0.9-4.7,0.1-6.7,1.9c-1.5,1.4-2.5,4.2-4.2,5.2c-4.4,2.4-5.9-0.5-8.5-3.2c-6.4-6.8-12.5,0.6-11,8
				c0.1,0.6,1.1,0.5,1.1-0.1c-0.1-2.9,0.2-12,7.6-7.3c0.8,0.5,1.4,1.6,2,2.3c1.2,1.4,2.3,2.9,4.1,3.5c2.4,0.8,4.5-0.1,6.2-1.7
				c1.6-1.5,2.5-3.9,4.2-5.2c4.1-3.2,6.4-0.3,8.9,2.4c2,2.1,4.1,4.6,7.2,4.5c3.2-0.1,4.9-2.8,6.4-5.2c2.7-4.3,5.8-6.4,10.3-2.5
				c1.9,1.6,3.2,3.8,5.3,5.3c6.1,4.2,14.6,0.1,16-7C414.5,449.8,412.3,449.2,412.1,450.6z"/>
			<path class="st12" d="M412.1,433.2c-0.8,4.2-4.2,7-8.4,7c-4.5,0-6.3-3.5-9.2-6.2c-2.4-2.3-5.8-4-9-2.5c-4,1.9-5.3,10.4-10.4,9.5
				c-4-0.7-5.8-6.6-9.8-8c-2.6-0.9-4.7,0.1-6.7,1.9c-1.5,1.4-2.5,4.2-4.2,5.2c-4.4,2.4-5.9-0.5-8.5-3.2c-6.4-6.8-12.5,0.6-11,8
				c0.1,0.6,1.1,0.5,1.1-0.1c-0.1-2.9,0.2-12,7.6-7.3c0.8,0.5,1.4,1.6,2,2.3c1.2,1.4,2.3,2.9,4.1,3.5c2.4,0.8,4.5-0.1,6.2-1.7
				c1.6-1.5,2.5-3.9,4.2-5.2c4.1-3.2,6.4-0.3,8.9,2.4c2,2.1,4.1,4.6,7.2,4.5c3.2-0.1,4.9-2.8,6.4-5.2c2.7-4.3,5.8-6.4,10.3-2.5
				c1.9,1.6,3.2,3.8,5.3,5.3c6.1,4.2,14.6,0.1,16-7C414.5,432.4,412.3,431.8,412.1,433.2z"/>
		</g>
	</g>
</g>
</svg>
