<?xml version="1.0" encoding="utf-8"?>
<!-- Generator: Adobe Illustrator 23.0.5, SVG Export Plug-In . SVG Version: 6.00 Build 0)  -->
<svg version="1.1" xmlns="http://www.w3.org/2000/svg" xmlns:xlink="http://www.w3.org/1999/xlink" x="0px" y="0px"
	 viewBox="0 0 750 500" style="enable-background:new 0 0 750 500;" xml:space="preserve">
<style type="text/css">
	.st0{clip-path:url(#SVGID_2_);fill:#1E1E1E;}
	.st1{clip-path:url(#SVGID_2_);fill:#A3A3A3;}
	.st2{clip-path:url(#SVGID_2_);fill:#2E2D2D;}
	.st3{clip-path:url(#SVGID_2_);}
	.st4{fill:#A3A3A3;}
	.st5{fill:#3DC9B0;}
	.st6{clip-path:url(#SVGID_2_);fill:#615A6B;}
	.st7{clip-path:url(#SVGID_2_);fill:#3DC9B0;}
</style>
<g id="BACKGROUND">
</g>
<g id="OBJECTS">
	<g>
		<defs>
			<rect id="SVGID_1_" width="750" height="500"/>
		</defs>
		<clipPath id="SVGID_2_">
			<use xlink:href="#SVGID_1_"  style="overflow:visible;"/>
		</clipPath>
		<rect class="st0" width="750" height="500"/>
		<path class="st1" d="M-53.4,233.9c23.8-2.3,59.5,1.8,83.4,33.5c23.9,31.7-17.9,67.2-10.8,87c7.1,19.8,35.8,4.4,55.5,49.9
			C100.8,464,2.5,500,2.5,500l-134.4-162.2L-53.4,233.9z"/>
		<path class="st2" d="M622.7,476.2c-38.7-18.2-61.1-54-49.3-85.4s97.4-25.1,99.8-56.7c2.4-31.6-80.3-116.5-45.3-183.2
			s100.3-54,166.5,19.9s89.4,182.3,53.3,248.6C811.6,485.6,663.6,495.5,622.7,476.2z"/>
		<g class="st3">
			<path class="st4" d="M614.8,400.8c-1.2,0.6-2.3,1.4-3.4,2.2c-0.8-1-1.6-1.9-2.5-2.8c-0.6-0.6-1.5,0.3-0.9,0.9
				c0.7,0.9,1.5,1.9,2.1,2.9c-1,0.9-2,1.8-2.9,2.7c-0.5,0.5,0.2,1.1,0.7,0.7c0.9-0.8,1.9-1.5,2.9-2.2c0.4,0.7,0.8,1.5,1.4,2
				c0.7,0.6,1.7,0,1.5-0.9c-0.2-0.8-0.7-1.5-1.3-2.1c1.1-0.7,2.1-1.3,3.2-1.9C616.7,401.8,615.8,400.3,614.8,400.8z"/>
			<path class="st4" d="M625.3,413.3c0.5-0.5,0-1.5-0.7-1.2c-1.3,0.5-2.4,1.5-3.6,2.3c-0.1,0.1-0.3,0.2-0.4,0.3
				c-0.9-1-1.7-1.9-2.7-2.8c-0.5-0.4-1.3,0.1-0.9,0.7c0.7,1.1,1.4,2.1,2.2,3c-0.7,0.5-1.4,0.9-2,1.4c-0.6,0.4-0.1,1.4,0.6,1
				c0.8-0.4,1.5-0.9,2.3-1.3c0.7,1,1.5,2,2.4,2.8c0.8,0.7,2.1-0.2,1.5-1.2c-0.6-1-1.5-1.8-2.3-2.7c0,0,0.1-0.1,0.1-0.1
				C622.9,414.9,624.3,414.3,625.3,413.3z"/>
			<path class="st4" d="M627.5,401.4c-0.9,0.6-1.7,1.1-2.6,1.7c-0.6-0.8-1.3-1.5-2.1-2.2c-0.4-0.4-1,0.1-0.8,0.6
				c0.4,0.9,0.9,1.7,1.5,2.5c-0.9,0.6-1.7,1.2-2.6,1.8c-0.5,0.3-0.1,1.2,0.5,0.8c0.9-0.6,1.9-1.1,2.8-1.6c0.5,0.8,1.1,1.7,1.8,2.4
				c0.8,0.7,1.9-0.2,1.4-1.1c-0.4-0.8-1.1-1.5-1.7-2.2c0.8-0.5,1.7-1,2.5-1.5C629,402.1,628.3,400.9,627.5,401.4z"/>
			<path class="st4" d="M613.1,414.1c-1.7,0.2-3.4,1.4-4.8,2.3c-0.6-0.7-1.2-1.4-1.9-2.1c-0.6-0.5-1.3,0.3-0.8,0.8
				c0.6,0.6,1.1,1.3,1.6,2c-1.3,0.9-2.5,1.9-3.5,3c-0.5,0.5,0.2,1.1,0.7,0.7c1.2-0.9,2.3-1.8,3.5-2.6c0.4,0.6,0.7,1.3,1,2
				c0.5,1.3,2.4,0.4,1.7-0.7c-0.4-0.7-0.9-1.4-1.4-2.1c1.5-0.8,3.1-1.2,4.5-2.2C614.4,414.9,613.9,413.9,613.1,414.1z"/>
		</g>
		<g class="st3">
			<path class="st5" d="M63,155.4c-1.4,0.7-2.7,1.6-4,2.6c-0.9-1.1-1.9-2.2-2.9-3.3c-0.7-0.7-1.7,0.3-1.1,1.1
				c0.9,1.1,1.7,2.2,2.5,3.4c-1.2,1-2.3,2.1-3.4,3.2c-0.5,0.6,0.3,1.3,0.8,0.8c1.1-0.9,2.3-1.8,3.4-2.6c0.5,0.8,0.9,1.7,1.6,2.3
				c0.8,0.7,2,0,1.8-1c-0.2-0.9-0.9-1.7-1.5-2.5c1.2-0.8,2.5-1.5,3.8-2.2C65.3,156.5,64.2,154.7,63,155.4z"/>
			<path class="st5" d="M75.3,170c0.6-0.6,0-1.8-0.8-1.4c-1.5,0.6-2.9,1.7-4.2,2.7c-0.2,0.1-0.3,0.2-0.5,0.3c-1-1.1-2-2.3-3.2-3.3
				c-0.6-0.5-1.5,0.1-1.1,0.9c0.8,1.3,1.7,2.4,2.6,3.6c-0.8,0.5-1.6,1.1-2.4,1.7c-0.7,0.5-0.1,1.6,0.7,1.2c0.9-0.5,1.8-1,2.7-1.6
				c0.9,1.2,1.7,2.4,2.8,3.3c0.9,0.8,2.5-0.2,1.8-1.4c-0.7-1.1-1.7-2.1-2.7-3.1c0.1,0,0.1-0.1,0.2-0.1
				C72.6,171.9,74.1,171.2,75.3,170z"/>
			<path class="st5" d="M77.9,156c-1,0.7-2.1,1.3-3.1,2c-0.8-0.9-1.5-1.8-2.4-2.6c-0.5-0.4-1.2,0.1-0.9,0.7c0.5,1.1,1.1,2,1.8,3
				c-1,0.7-2,1.4-3,2.1c-0.6,0.4-0.1,1.4,0.6,1c1.1-0.6,2.2-1.3,3.3-1.9c0.6,1,1.2,2,2.1,2.8c0.9,0.8,2.2-0.2,1.7-1.3
				c-0.5-0.9-1.2-1.8-2-2.6c1-0.6,2-1.2,2.9-1.8C79.7,156.8,78.8,155.4,77.9,156z"/>
			<path class="st5" d="M61,170.9c-2,0.3-4,1.6-5.6,2.7c-0.7-0.9-1.4-1.7-2.2-2.5c-0.7-0.6-1.6,0.3-1,1c0.7,0.8,1.3,1.6,1.9,2.4
				c-1.5,1-2.9,2.2-4.1,3.5c-0.5,0.6,0.3,1.3,0.9,0.9c1.4-1.1,2.7-2.1,4.1-3c0.4,0.8,0.8,1.5,1.1,2.4c0.6,1.5,2.9,0.5,2-0.9
				c-0.5-0.8-1-1.6-1.6-2.4c1.7-0.9,3.7-1.5,5.2-2.5C62.5,171.9,62,170.8,61,170.9z"/>
		</g>
		<path class="st6" d="M716.5,54.2c-22.2,18.2-39.2,42.9-47.7,71.1c-4.1,13.8-5.9,28.2-4.6,42.7c1.4,15.7,5.9,30.9,11,45.7
			c10.2,29.9,23.4,60.4,22.4,92.5c-0.5,16.6-4.9,33.1-18,43.5c-14,11.1-32.1,14.5-49.2,17.4c-27.8,4.8-66.8,13.3-70.6,48.4
			c0,0.3,0.4,0.4,0.4,0.1c5.4-36.1,45.6-41.9,74.3-46.1c15.3-2.3,30.9-5.3,44-13.7c12-7.7,18.9-19.4,21.8-33.6
			c5.8-28.3-3.7-56.9-13.9-83.3c-11.9-30.7-24.9-62.7-20-96c5-34.6,24.9-66.1,50.9-87.6C717.8,54.7,717.1,53.7,716.5,54.2z"/>
		<path class="st6" d="M98.9,453c6.2-9.5,11.4-20,12.1-31.5c1.2-21.1-15.1-33.8-30.1-45.7c-7.9-6.2-16.4-13.1-19.9-22.9
			c-3.9-10.8,0.2-21.8,3-32.3c5.4-19.9,1.9-39.9-9.5-57.1c-14.7-22.2-40.1-35-65.5-40.6c-0.7-0.2-0.9,0.9-0.2,1.2
			c23.2,6.6,45.9,17.9,60.3,38c12.5,17.4,16.4,37.9,10.7,58.5c-2.5,9.2-5.8,18.7-4.1,28.3c1.4,8.1,5.9,14.9,11.6,20.6
			c13.1,13.3,34.9,21.7,40,41.3c3.3,12.8-1.4,25.9-7.9,36.8c-7.4,12.4-16.9,23.5-25.1,35.4c-0.8,1.2,0.8,2.8,1.8,1.6
			C84,474.3,91.8,463.8,98.9,453z"/>
		<path class="st7" d="M658.1-25.4c-12.4,36.2-31.3,73.6-67.9,90.1c-17.9,8.1-37.9,9-56.8,4c-18.9-5-39.4-15.5-51.2-31.6
			c-12.9-17.5-12.9-40.6-12.9-61.4c0-0.4-0.7-0.4-0.7,0c-0.6,19.3-0.9,40,9,57.3c9.7,17,28.7,28.4,46.6,35
			c18.4,6.7,38.8,8.3,57.7,2.4c18.4-5.7,34.5-17.8,46.8-32.6c15.1-18.2,24.7-40.3,30.9-62.9C659.7-25.9,658.4-26.2,658.1-25.4z"/>
		<path class="st7" d="M661.2-26.8c-4.4,38.1-25.2,76.8-60.9,93.7c-38.8,18.4-92,10.5-120.2-23.1C464.9,25.6,457.9,0.3,463.2-23
			c0.1-0.3-0.3-0.4-0.4-0.1c-5.9,20.5-1.3,42.2,10.2,60c11.6,17.9,29.9,30.2,50,36.4c21.8,6.7,46.1,6.6,67.8-0.7
			c19.6-6.6,36.1-19.7,48.3-36.3c13.5-18.4,21.4-40.6,24.3-63.1C663.5-28.2,661.4-28.2,661.2-26.8z"/>
	</g>
</g>
</svg>
