<?xml version="1.0" encoding="utf-8"?>
<!-- Generator: Adobe Illustrator 23.0.5, SVG Export Plug-In . SVG Version: 6.00 Build 0)  -->
<svg version="1.1" xmlns="http://www.w3.org/2000/svg" xmlns:xlink="http://www.w3.org/1999/xlink" x="0px" y="0px"
	 viewBox="0 0 1245 830" style="enable-background:new 0 0 1245 830;" xml:space="preserve">
<style type="text/css">
	.st0{clip-path:url(#SVGID_2_);fill:#1E1E1E;}
	.st1{clip-path:url(#SVGID_2_);fill:#525151;fill-opacity:0.3;}
	.st2{clip-path:url(#SVGID_2_);fill:#A3A3A3;}
	.st3{clip-path:url(#SVGID_2_);}
	.st4{fill:#A3A3A3;}
	.st5{fill:#3DC9B0;}
	.st6{clip-path:url(#SVGID_2_);fill:#615A6B;}
</style>
<g id="BACKGROUND">
</g>
<g id="OBJECTS">
	<g>
		<defs>
			<rect id="SVGID_1_" y="0" width="1245" height="830"/>
		</defs>
		<clipPath id="SVGID_2_">
			<use xlink:href="#SVGID_1_"  style="overflow:visible;"/>
		</clipPath>
		<rect y="0" class="st0" width="1245" height="830"/>
		<path class="st1" d="M0,63.3C0,28.4,30.8,0,68.9,0h1107.2c38,0,68.9,28.4,68.9,63.3v766.5H0V63.3z"/>
		<path class="st2" d="M1.8,388.3c39.4-3.9,98.8,3,138.5,55.6c39.6,52.7-29.8,111.5-17.9,144.4c11.8,32.9,59.3,7.4,92.2,82.8
			c43.2,99.1-120,158.8-120,158.8H0L1.8,388.3z"/>
		<path class="st0" d="M975.4,750.6c-64.2-30.2-101.4-89.6-81.9-141.7c19.5-52.1,161.6-41.7,165.7-94.1
			c4.1-52.4-133.3-193.4-75.2-304.2c58.1-110.7,166.6-89.6,276.4,33c109.9,122.6,148.4,302.6,88.5,412.6
			C1289.1,766.3,1043.3,782.6,975.4,750.6z"/>
		<g class="st3">
			<path class="st4" d="M1151.5,219.3c-2,1-3.8,2.3-5.6,3.7c-1.3-1.6-2.7-3.2-4.2-4.7c-1-1-2.4,0.5-1.6,1.6c1.2,1.6,2.4,3.2,3.6,4.8
				c-1.7,1.4-3.3,2.9-4.8,4.5c-0.8,0.8,0.4,1.9,1.2,1.2c1.6-1.3,3.2-2.5,4.8-3.7c0.6,1.2,1.3,2.4,2.3,3.3c1.1,1,2.9,0,2.5-1.5
				c-0.3-1.3-1.2-2.5-2.1-3.6c1.8-1.1,3.5-2.1,5.4-3.1C1154.7,221,1153.2,218.4,1151.5,219.3z"/>
			<path class="st4" d="M1169,240.1c0.8-0.8,0-2.5-1.2-2c-2.2,0.9-4,2.5-6,3.8c-0.2,0.1-0.4,0.3-0.6,0.4c-1.4-1.6-2.9-3.2-4.5-4.6
				c-0.8-0.7-2.2,0.2-1.6,1.2c1.1,1.8,2.4,3.4,3.7,5c-1.1,0.8-2.3,1.6-3.4,2.4c-1,0.7-0.1,2.3,1,1.6c1.3-0.7,2.5-1.5,3.8-2.2
				c1.2,1.7,2.4,3.4,3.9,4.7c1.3,1.2,3.5-0.3,2.5-1.9c-1-1.6-2.4-3-3.8-4.4c0.1,0,0.1-0.1,0.2-0.1
				C1165,242.8,1167.3,241.7,1169,240.1z"/>
			<path class="st4" d="M1172.6,220.2c-1.5,0.9-2.9,1.9-4.3,2.9c-1.1-1.3-2.1-2.5-3.4-3.7c-0.7-0.6-1.7,0.1-1.3,1
				c0.7,1.5,1.6,2.8,2.5,4.2c-1.4,1-2.9,2-4.3,3c-0.8,0.6-0.1,1.9,0.8,1.4c1.5-0.9,3.1-1.8,4.6-2.7c0.9,1.4,1.8,2.8,2.9,4
				c1.2,1.2,3.1-0.3,2.3-1.8c-0.7-1.3-1.8-2.5-2.8-3.7c1.4-0.8,2.8-1.7,4.1-2.5C1175.1,221.4,1173.9,219.4,1172.6,220.2z"/>
			<path class="st4" d="M1148.7,241.3c-2.8,0.4-5.6,2.2-8,3.8c-1-1.2-2-2.4-3.2-3.5c-0.9-0.9-2.2,0.5-1.4,1.4c1,1.1,1.8,2.2,2.6,3.4
				c-2.1,1.5-4.1,3.1-5.8,5c-0.8,0.8,0.4,1.9,1.2,1.2c1.9-1.5,3.8-3,5.8-4.3c0.6,1.1,1.2,2.2,1.6,3.3c0.8,2.2,4,0.7,2.9-1.2
				c-0.7-1.2-1.5-2.3-2.3-3.4c2.4-1.3,5.2-2.1,7.4-3.6C1150.8,242.7,1150,241.1,1148.7,241.3z"/>
		</g>
		<g class="st3">
			<path class="st5" d="M79.6,262.6c-2.3,1.2-4.5,2.7-6.6,4.3c-1.5-1.9-3.2-3.7-4.9-5.5c-1.2-1.2-2.9,0.6-1.9,1.9
				c1.5,1.8,2.9,3.7,4.2,5.7c-2,1.7-3.9,3.4-5.6,5.3c-0.9,0.9,0.4,2.2,1.4,1.4c1.8-1.6,3.7-3,5.7-4.3c0.8,1.4,1.5,2.9,2.7,3.9
				c1.3,1.1,3.4,0.1,2.9-1.7c-0.4-1.5-1.4-2.9-2.5-4.2c2.1-1.3,4.2-2.5,6.3-3.7C83.4,264.5,81.6,261.5,79.6,262.6z"/>
			<path class="st5" d="M100.1,287c1-0.9,0-3-1.4-2.4c-2.6,1-4.8,2.9-7,4.5c-0.3,0.2-0.5,0.3-0.8,0.5c-1.7-1.9-3.4-3.8-5.3-5.4
				c-1-0.8-2.6,0.2-1.8,1.4c1.3,2.1,2.8,4,4.3,5.9c-1.3,0.9-2.6,1.8-3.9,2.8c-1.1,0.8-0.1,2.6,1.1,1.9c1.5-0.8,2.9-1.7,4.4-2.6
				c1.4,1.9,2.9,4,4.6,5.6c1.5,1.4,4.1-0.4,2.9-2.3c-1.2-1.9-2.8-3.5-4.4-5.2c0.1-0.1,0.2-0.1,0.3-0.2
				C95.5,290.1,98.1,288.9,100.1,287z"/>
			<path class="st5" d="M104.4,263.6c-1.7,1.1-3.4,2.2-5.1,3.4c-1.3-1.5-2.5-3-4-4.3c-0.8-0.7-1.9,0.2-1.5,1.2
				c0.8,1.8,1.8,3.3,2.9,4.9c-1.7,1.2-3.4,2.4-5.1,3.5c-1,0.7-0.1,2.3,0.9,1.6c1.8-1.1,3.6-2.1,5.4-3.2c1,1.6,2.1,3.3,3.4,4.7
				c1.5,1.4,3.7-0.4,2.8-2.1c-0.8-1.6-2.1-2.9-3.3-4.3c1.6-1,3.3-1.9,4.8-3C107.3,265,105.9,262.6,104.4,263.6z"/>
			<path class="st5" d="M76.4,288.3c-3.3,0.4-6.6,2.6-9.4,4.5c-1.2-1.4-2.4-2.8-3.7-4.1c-1.1-1-2.6,0.5-1.6,1.6
				c1.1,1.3,2.1,2.6,3.1,4c-2.5,1.7-4.8,3.7-6.9,5.9c-0.9,1,0.4,2.2,1.4,1.4c2.3-1.8,4.5-3.5,6.8-5c0.7,1.3,1.4,2.5,1.9,3.9
				c1,2.5,4.7,0.9,3.4-1.4c-0.8-1.4-1.7-2.7-2.7-4c2.8-1.5,6.1-2.4,8.7-4.2C78.8,290,77.9,288.1,76.4,288.3z"/>
		</g>
		<path class="st6" d="M1131.1,50.2c-36.8,30.2-65.1,71.3-79.1,118c-6.8,22.9-9.7,46.8-7.6,70.9c2.3,26,9.8,51.2,18.2,75.9
			c17,49.6,38.9,100.2,37.2,153.5c-0.9,27.5-8.1,55-29.9,72.2c-23.3,18.4-53.2,24-81.7,28.9c-46.2,8-111,22.1-117.2,80.4
			c-0.1,0.5,0.7,0.6,0.7,0.1c9-60,75.8-69.5,123.4-76.6c25.3-3.8,51.3-8.8,73.1-22.8c19.9-12.7,31.3-32.3,36.2-55.8
			c9.6-46.9-6.2-94.5-23.2-138.3c-19.7-50.9-41.3-104.1-33.3-159.4c8.4-57.5,41.3-109.7,84.4-145.4
			C1133.4,51,1132.1,49.3,1131.1,50.2z"/>
		<path class="st6" d="M254.6,752c10.4-15.7,19-33.2,20-52.3c2-35-25.1-56.1-49.9-75.8c-13.1-10.4-27.2-21.8-33-38
			c-6.4-17.9,0.3-36.2,5-53.6c8.9-33,3.1-66.2-15.8-94.8c-24.4-36.8-66.6-58.1-108.7-67.4c-1.2-0.3-1.6,1.6-0.4,1.9
			c38.6,11,76.2,29.8,100.1,63.1c20.7,28.8,27.1,62.9,17.7,97.1c-4.2,15.2-9.6,31-6.8,47c2.3,13.4,9.8,24.7,19.2,34.2
			c21.7,22,57.9,36.1,66.3,68.5c5.5,21.2-2.3,43-13.2,61.1c-12.3,20.6-28,39-41.6,58.7c-1.4,2.1,1.4,4.7,3,2.6
			C229.8,787.3,242.8,769.9,254.6,752z"/>
	</g>
</g>
</svg>
